<svg xmlns="http://www.w3.org/2000/svg" width="104" height="25" viewBox="0 0 104 25">
    <g fill="none" fill-rule="nonzero">
        <path fill="#253B80" d="M38.939 6h-5.794a.804.804 0 0 0-.796.675l-2.343 14.77a.48.48 0 0 0 .478.555h2.766a.804.804 0 0 0 .795-.676l.632-3.984a.803.803 0 0 1 .795-.676h1.834c3.817 0 6.02-1.837 6.595-5.475.259-1.592.01-2.843-.74-3.718C42.339 6.509 40.879 6 38.94 6zm.668 5.395c-.317 2.066-1.905 2.066-3.441 2.066h-.874l.613-3.86a.482.482 0 0 1 .477-.405h.4c1.047 0 2.034 0 2.544.593.304.354.397.88.281 1.606zM55.54 11.255h-2.651a.465.465 0 0 0-.456.398l-.118.759-.185-.275C51.556 11.285 50.276 11 48.999 11c-2.93 0-5.432 2.27-5.92 5.454-.253 1.588.107 3.107.988 4.166.808.974 1.964 1.38 3.34 1.38 2.36 0 3.669-1.553 3.669-1.553l-.118.754a.469.469 0 0 0 .455.546H53.8c.38 0 .7-.281.76-.665l1.433-9.282a.467.467 0 0 0-.454-.545zm-3.696 5.279c-.256 1.549-1.458 2.59-2.991 2.59-.77 0-1.385-.253-1.78-.732-.392-.475-.541-1.152-.416-1.906.239-1.536 1.46-2.61 2.97-2.61.754 0 1.366.256 1.769.739.404.488.564 1.168.448 1.919zM70.531 11h-2.703c-.257 0-.5.128-.646.341l-3.728 5.473-1.58-5.259a.782.782 0 0 0-.749-.555H58.47a.467.467 0 0 0-.444.617l2.977 8.708-2.799 3.938c-.22.31.002.737.382.737h2.7a.78.78 0 0 0 .641-.334l8.99-12.933A.466.466 0 0 0 70.53 11z"/>
        <path fill="#179BD7" d="M79.94 6h-5.796a.803.803 0 0 0-.795.675l-2.343 14.77a.48.48 0 0 0 .476.555h2.974c.276 0 .512-.2.556-.473l.665-4.187a.803.803 0 0 1 .794-.676h1.834c3.817 0 6.02-1.837 6.595-5.475.26-1.592.01-2.843-.74-3.718C83.339 6.509 81.879 6 79.94 6zm.668 5.395c-.316 2.066-1.905 2.066-3.442 2.066h-.873l.614-3.86a.48.48 0 0 1 .476-.405h.4c1.046 0 2.034 0 2.544.593.304.354.397.88.28 1.606zM96.537 11.255h-2.65a.462.462 0 0 0-.455.398l-.117.759-.186-.275C92.555 11.285 91.275 11 89.998 11c-2.93 0-5.432 2.27-5.919 5.454-.253 1.588.106 3.107.987 4.166.81.974 1.964 1.38 3.34 1.38 2.36 0 3.67-1.553 3.67-1.553l-.119.754a.469.469 0 0 0 .457.546H94.8c.378 0 .7-.281.76-.665l1.433-9.282a.47.47 0 0 0-.457-.545zm-3.696 5.279c-.254 1.549-1.458 2.59-2.991 2.59-.768 0-1.385-.253-1.78-.732-.392-.475-.54-1.152-.417-1.906.24-1.536 1.462-2.61 2.972-2.61.752 0 1.365.256 1.768.739.405.488.566 1.168.448 1.919zM100.376 6.406l-2.37 15.04a.48.48 0 0 0 .475.554h2.383a.8.8 0 0 0 .793-.676l2.337-14.769a.48.48 0 0 0-.475-.555h-2.668a.482.482 0 0 0-.475.406z"/>
        <path fill="#253B80" d="M6.283 25l.445-2.834-.991-.023H1L4.292 1.229a.276.276 0 0 1 .092-.164A.268.268 0 0 1 4.559 1h7.986c2.652 0 4.482.553 5.437 1.644.448.512.733 1.047.87 1.636.146.617.148 1.355.007 2.255l-.01.066v.577l.448.254c.377.2.676.43.906.693.383.438.631.994.736 1.653.108.679.072 1.486-.105 2.4-.204 1.05-.535 1.966-.98 2.715a5.581 5.581 0 0 1-1.555 1.707 6.298 6.298 0 0 1-2.092.946c-.772.201-1.651.303-2.616.303h-.622c-.444 0-.876.16-1.215.448-.34.293-.564.694-.633 1.133l-.047.255-.787 4.995-.035.183c-.01.059-.026.088-.05.107a.131.131 0 0 1-.081.03H6.283z"/>
        <path fill="#179BD7" d="M18.913 6c-.023.151-.05.306-.079.464-1.02 5.36-4.513 7.213-8.974 7.213H7.59a1.11 1.11 0 0 0-1.09.955l-1.164 7.543-.329 2.138a.59.59 0 0 0 .574.687h4.028a.976.976 0 0 0 .957-.836l.04-.209.758-4.923.049-.27a.976.976 0 0 1 .957-.837h.602c3.903 0 6.958-1.62 7.851-6.31.373-1.96.18-3.595-.807-4.746A3.864 3.864 0 0 0 18.913 6z"/>
        <path fill="#222D65" d="M18.882 6.357a8.945 8.945 0 0 0-1.04-.215A14.17 14.17 0 0 0 15.746 6H9.392c-.156 0-.305.033-.438.093a.953.953 0 0 0-.564.705l-1.351 7.97L7 15c.089-.525.57-.91 1.142-.91h2.378c4.67 0 8.328-1.767 9.397-6.875.032-.151.059-.299.083-.443a5.935 5.935 0 0 0-.879-.345 8.246 8.246 0 0 0-.24-.07z"/>
        <path fill="#253B80" d="M7.879 6.6a.998.998 0 0 1 .534-.751.925.925 0 0 1 .416-.099h6.025c.714 0 1.38.05 1.988.152a7.711 7.711 0 0 1 1.214.303c.299.103.577.226.833.368.302-2.012-.002-3.382-1.042-4.623C16.7.585 14.63 0 11.983 0H4.296c-.54 0-1.002.411-1.086.971L.008 22.201c-.063.42.247.799.652.799h4.746l1.191-7.908L7.88 6.6z"/>
    </g>
</svg>
