<svg xmlns="http://www.w3.org/2000/svg" width="60" height="32" viewBox="0 0 60 32">
    <g fill="none" fill-rule="nonzero">
        <path fill="#000" d="M51.372 27.67c0-1.343-.64-2.407-2.07-2.407-1.272 0-2.207.923-2.207 2.439 0 1.657 1.003 2.395 2.408 2.395.73 0 1.354-.198 1.857-.521l-.143-1c-.517.294-1.017.48-1.537.48-.628 0-1.07-.284-1.147-1.01h2.814c.015-.078.025-.234.025-.376zm-2.845-.413c.046-.713.333-1.066.733-1.066.442 0 .687.364.733 1.066h-1.466zm-3.064.216l1.532 2.386-1.5.212-1.357-2.229v2.16H42.7V23.39l1.435-.229v4.102l1.25-1.903h1.553l-1.475 2.114zm13.89 1.099c0 .977-.678 1.509-1.918 1.509-.745 0-1.442-.21-1.93-.464l.173-1.092c.554.343 1.232.553 1.77.553.397 0 .59-.132.59-.352 0-.239-.133-.34-.796-.503-1.172-.303-1.67-.614-1.67-1.484 0-.862.648-1.441 1.791-1.441.632 0 1.244.122 1.729.342l-.177 1.089c-.51-.275-1.09-.439-1.542-.439-.34 0-.495.121-.495.307 0 .188.134.294.794.474 1.243.325 1.681.639 1.681 1.5zm-4.43-3.306l.242 1.46c-.7.046-1.22.32-1.578.701v2.58h-1.442v-4.645h1.263l.154.919c.285-.533.675-.965 1.361-1.015zm-15.243 0c-1.285 0-2.243.935-2.243 2.426 0 1.49.941 2.405 2.233 2.405 1.298 0 2.262-.93 2.262-2.417 0-1.485-.954-2.414-2.252-2.414zm0 3.678c-.543 0-.85-.516-.85-1.262 0-.76.297-1.241.85-1.241.553 0 .863.503.863 1.252-.001.75-.31 1.251-.863 1.251zM21.945 27.67c0-1.343-.638-2.407-2.07-2.407-1.27 0-2.207.923-2.207 2.439 0 1.657 1.004 2.395 2.405 2.395.735 0 1.357-.198 1.862-.521l-.143-1c-.515.294-1.022.48-1.537.48-.632 0-1.068-.284-1.147-1.01h2.81c.017-.078.027-.234.027-.376zm-2.845-.413c.048-.713.335-1.066.735-1.066.44 0 .687.364.735 1.066H19.1zm6.403-1.896H26.9l-1.663 4.734c-.42 1.215-.994 1.632-2.015 1.632-.287 0-.41-.032-.544-.058l-.181-1.145c.153.046.296.078.576.078.322 0 .609-.123.762-.449l.058-.142-1.7-4.54 1.547-.178.905 2.93.858-2.862zm-15.75-.095c-1.288 0-2.243.935-2.243 2.426 0 1.49.947 2.405 2.233 2.405 1.299 0 2.265-.93 2.265-2.417 0-1.485-.955-2.414-2.255-2.414zm0 3.678c-.543 0-.85-.516-.85-1.262 0-.76.297-1.241.85-1.241.557 0 .86.503.86 1.252 0 .75-.303 1.251-.86 1.251zm-2.975-2.24v3.299H5.327v-2.91c0-.331-.124-.56-.459-.56-.256 0-.505.164-.761.408v3.065H2.665v-2.913c0-.331-.123-.556-.458-.556-.267 0-.509.16-.765.407v3.062H0v-4.645h1.27l.107.633c.42-.426.85-.726 1.451-.726.639 0 .994.311 1.162.726.42-.417.878-.726 1.462-.726.868-.002 1.326.54 1.326 1.436zm10.157 0v3.299h-1.452v-2.91c0-.331-.133-.56-.478-.56-.277 0-.533.164-.792.418v3.052h-1.441V25.36h1.27l.105.633c.42-.403.868-.726 1.461-.726.869-.002 1.327.54 1.327 1.436zm13.227-1.438c-.554 0-.954.303-1.25.604v-2.71l-1.442.229v6.34c.543.21 1.253.33 2.005.33 1.442 0 2.368-.776 2.368-2.501 0-1.574-.725-2.292-1.681-2.292zm-.727 3.648c-.218 0-.332-.031-.523-.09V26.99c.238-.263.488-.445.795-.445.41 0 .696.329.696 1.108-.001.92-.405 1.262-.968 1.262zm5.215-3.648c-1.288 0-2.248.935-2.248 2.426 0 1.49.946 2.405 2.238 2.405 1.297 0 2.26-.93 2.26-2.417.003-1.485-.955-2.414-2.25-2.414zm0 3.678c-.547 0-.85-.516-.85-1.262 0-.76.297-1.241.85-1.241.553 0 .86.503.86 1.252 0 .75-.307 1.251-.86 1.251z"/>
        <path fill="#862165" d="M47.252 1.979l4.946-.879v18.843h-4.946V1.979zM59.42 19.94h-4.95V1.98l4.95-.879v18.841zm-23.903 0h-4.985v-7.755c0-4.048 2.321-6.083 6.891-6.23 0 0 .824-.032 1.312.07v4.029c-2.897.1-3.218 1.138-3.218 3.56v6.326zm-14.332 0H16.08V2.101l5.105-1v9.84c1.917-2.3 2.708-4.522 2.818-4.797h5.837c-.167.528-1.208 3.712-3.583 6.7 0 0 2.646 4.604 3.251 7.099h-6.113s-.732-3.315-2.21-5.514v5.512zm19.062-17.52A2.426 2.426 0 0 1 42.682 0a2.428 2.428 0 0 1 2.438 2.42 2.427 2.427 0 0 1-2.438 2.419 2.427 2.427 0 0 1-2.435-2.419zm4.91 17.52h-4.945V6.16h4.945v13.782zm-30.32-5.871c0 3.022-2.442 6.071-7.894 6.071-2.526 0-4.681-.244-6.595-.746v-4.4c1.277.518 3.382 1.068 5.55 1.068 1.977 0 3.155-.651 3.155-1.755 0-1.336-1.438-1.418-1.98-1.45C.687 12.425 0 8.676 0 7.084 0 4.325 1.977 1.1 7.552 1.1c3.231 0 4.976.501 6.478 1.022l.078.024v4.273l-.055-.015c-.605-.255-1.315-.503-1.315-.503-1.27-.379-3.05-.78-4.423-.78-.782 0-2.865 0-2.865 1.56 0 1.293 1.445 1.385 2.07 1.427 4.585.306 7.317 2.534 7.317 5.962z"/>
    </g>
</svg>
