<?xml version="1.0" encoding="UTF-8"?>
<svg width="132px" height="38px" viewBox="0 0 132 38" version="1.1" xmlns="http://www.w3.org/2000/svg" xmlns:xlink="http://www.w3.org/1999/xlink">
    <!-- Generator: Sketch 48.1 (47250) - http://www.bohemiancoding.com/sketch -->
    <title>Slice Copy 6</title>
    <desc>Created with Sketch.</desc>
    <defs></defs>
    <g id="UI-kit" stroke="none" stroke-width="1" fill="none" fill-rule="evenodd">
        <g id="ic_epayments">
            <rect id="Rectangle-11-Copy-2" fill-opacity="0" fill="#D8D8D8" x="0" y="0" width="132" height="38"></rect>
            <path d="M68.3149967,23.6060853 L68.3149967,22.941943 C68.3149967,19.9444835 68.3287546,16.9469064 68.3024147,13.9496821 C68.2977112,13.4020705 68.469391,13.1608956 69.0078307,13.1209153 C70.4439444,13.0141446 71.8784118,12.8088343 73.3138199,12.8056594 C73.9318673,12.8042483 74.5796647,13.1489015 75.158555,13.4448728 C75.5067359,13.6229025 75.7350936,13.6351317 76.0651657,13.455691 C77.2706875,12.8002503 78.5588742,12.5793007 79.9197309,12.8030724 C81.5557458,13.0719983 82.6467359,14.2189608 82.7723208,15.9790319 C82.8808554,17.4995744 82.868979,19.0290537 82.8963772,20.5547701 C82.9117813,21.4164618 82.8857942,22.2789766 82.9051963,23.1405507 C82.9134276,23.504606 82.7772596,23.6265458 82.4242576,23.6112592 C81.9353228,23.5900932 81.4433307,23.5822147 80.9555718,23.6132582 C80.5349562,23.6399509 80.416309,23.4741505 80.4199542,23.0716436 C80.4358288,21.2889954 80.4341825,19.5059944 80.4212477,17.7233461 C80.4180728,17.2949697 80.3762112,16.8621248 80.3026005,16.4399805 C80.069892,15.1064044 79.1343544,14.5786653 77.6639048,14.9395458 C77.4375461,14.9950477 77.1782625,15.0464341 77.0145788,15.1907157 C76.8460738,15.3392305 76.6753347,15.6003956 76.6778041,15.8101742 C76.7064958,18.2744855 76.7662309,20.7383264 76.8219681,23.2022849 C76.8287882,23.5022542 76.7063782,23.6210191 76.4018228,23.6103185 C75.9126529,23.5930329 75.4197201,23.5736307 74.9334898,23.6151396 C74.443144,23.6570013 74.3377843,23.4469875 74.3401361,23.0041475 C74.3500135,21.0846258 74.3374315,19.1648689 74.3189701,17.2453471 C74.3160303,16.9355003 74.2642912,16.6215378 74.1976183,16.3175705 C73.957972,15.2244637 73.2741924,14.7336475 72.1566272,14.8524124 C70.6605432,15.0115102 70.7596707,14.7235349 70.7622576,16.3804805 C70.7656677,18.5943274 70.7508515,20.8081742 70.772723,23.0217859 C70.7774266,23.4928471 70.6297349,23.6437137 70.1666697,23.6147869 C69.5843693,23.5785695 68.9979533,23.6060853 68.3149967,23.6060853" id="Fill-4" fill="#202020"></path>
            <path d="M42.1048352,18.0332283 C41.8443757,15.8635949 41.1059172,15.0478804 39.1025545,14.84892 C38.758019,14.8147016 38.4036059,14.8951324 38.0535437,14.897837 C37.6127028,14.9013646 37.4226791,15.097503 37.4256188,15.5455168 C37.4369073,17.2469111 37.4230318,18.9484229 37.4401998,20.6496996 C37.4421988,20.8393706 37.5285091,21.1197026 37.667852,21.2020148 C38.9745002,21.9749269 41.1670634,22.0992184 41.7876978,19.9767381 C41.9705486,19.3514002 42.0033559,18.6823192 42.1048352,18.0332283 M37.5163974,23.3233192 C37.4810032,23.6057678 37.4350259,23.8095494 37.4332621,24.0138014 C37.425266,24.973915 37.4197393,25.9343814 37.4342028,26.8943775 C37.4394943,27.2406769 37.3330763,27.3929545 36.9643174,27.3749634 C36.4559804,27.3501522 35.9448213,27.3513281 35.4363668,27.3746107 C35.0748984,27.3911907 34.9395536,27.2458508 34.9528411,26.8975524 C34.9663638,26.5452559 34.9553105,26.1921364 34.9553105,25.8393696 C34.9553105,21.9396502 34.9696563,18.0398132 34.9411998,14.1403291 C34.9363787,13.491003 35.0932423,13.1517589 35.7812551,13.1048409 C37.1398777,13.0121808 38.5034389,12.7306729 39.8513609,12.798169 C42.6152887,12.9364536 44.490597,14.9725059 44.5471573,17.7671245 C44.5651484,18.6566848 44.5054132,19.5846966 44.2681188,20.4358053 C43.4945012,23.2117273 40.948348,24.481335 38.1805397,23.5597905 C37.9972186,23.4987619 37.8163668,23.4303251 37.5163974,23.3233192" id="Fill-6" fill="#202020"></path>
            <path d="M90.196451,17.2267563 C90.742534,17.2267563 91.288617,17.2299312 91.8347,17.2259332 C92.4482791,17.2213472 92.5247119,17.126453 92.4023018,16.5430943 C92.1558354,15.3679105 91.2934381,14.7031802 90.0953245,14.7649144 C89.0552504,14.8184174 88.0608008,15.7946407 87.9595567,16.8381249 C87.9255735,17.1883047 88.120536,17.2269915 88.3826417,17.226286 C88.987284,17.2248749 89.5918087,17.2259332 90.196451,17.2267563 M91.3654026,19.0312761 C90.4056417,19.0313937 89.4449401,19.0563225 88.4864727,19.021869 C87.9347455,19.0019964 87.8559609,19.2318828 87.9721387,19.6937721 C88.2759885,20.9018808 89.3534559,21.7277079 90.8041506,21.7032494 C91.6737208,21.6885508 92.544702,21.5219273 93.4059233,21.3712958 C93.7590429,21.3094441 93.9743482,21.2930992 93.9970429,21.7226516 C94.0072731,21.9165557 94.0577188,22.1079905 94.0857049,22.3011891 C94.2383354,23.3564322 94.2393937,23.3710132 93.2251891,23.5866713 C91.8169441,23.8859352 90.3965874,24.0216328 88.9819925,23.6525211 C87.2073403,23.1895735 86.0309806,22.0722435 85.5787336,20.2853621 C85.155531,18.6138354 85.1799895,16.947953 85.9571348,15.3627366 C86.9766308,13.2831763 89.105696,12.3142435 91.5262642,12.8022375 C93.4401417,13.1881644 94.7323265,14.8247672 94.8895429,17.0785943 C94.9208215,17.527196 94.9070636,17.9787375 94.926113,18.4283976 C94.9448097,18.8707672 94.775952,19.0562049 94.3032445,19.0408008 C93.3249045,19.0090518 92.3448008,19.0312761 91.3654026,19.0312761" id="Fill-8" fill="#202020"></path>
            <path d="M61.5957064,20.5558048 C61.7684446,20.1915143 61.9012025,19.9883207 61.9649357,19.7652544 C62.560994,17.681461 63.1575226,15.5974323 63.722655,13.5050548 C63.8345997,13.0903187 64.0063971,12.904293 64.4426521,12.9318088 C64.891489,12.9600301 65.3446768,12.9576784 65.7939841,12.9328671 C66.298323,12.9049985 66.415324,13.0939639 66.2611649,13.5636141 C65.5064792,15.8633009 64.8172904,18.1859175 64.0045157,20.4645558 C63.4612548,21.9876853 62.8168675,23.484122 62.0980463,24.9331705 C60.9660177,27.2148661 59.2238201,27.7342564 56.7261135,27.2409708 C56.2565809,27.1481932 56.1117114,26.8981991 56.2569337,26.4404254 C56.3862815,26.0330973 56.3594712,25.4767841 56.6263981,25.2445459 C56.8332371,25.0646349 57.3874337,25.2792347 57.7864129,25.3257999 C58.9326699,25.4597337 60.0264821,24.7701922 60.3768971,23.6499224 C60.4306353,23.478125 60.3607875,23.2314234 60.2731837,23.057039 C58.7528764,20.0300647 57.4820928,16.9052564 56.5411461,13.6489837 C56.3468892,12.9768454 56.3712301,12.9327495 57.0548922,12.9413335 C57.6581234,12.9488592 58.4148082,12.7730637 58.8201373,13.0679768 C59.2151185,13.3554817 59.2492193,14.1375657 59.4440641,14.7016398 C60.0176629,16.3624659 60.5885572,18.0243503 61.17074,19.6822367 C61.2575207,19.9295262 61.3996857,20.1574135 61.5957064,20.5558048" id="Fill-10" fill="#202020"></path>
            <path d="M52.5686863,20.3633588 C52.5686863,20.0510426 52.6134876,19.7295544 52.5521062,19.4298203 C52.5143602,19.2452056 52.3158701,18.9514685 52.1873454,18.9502926 C51.3789214,18.9430021 50.5555637,18.9247758 49.7653661,19.0670584 C49.1250944,19.1825307 48.7984323,19.7655367 48.812543,20.3791157 C48.8281823,21.0661878 49.1510815,21.5385426 49.824043,21.7121039 C50.2321942,21.8173459 50.6695074,21.8412165 51.0942386,21.8446266 C52.9060489,21.8587373 52.5337624,21.8341612 52.5686863,20.3633588 M52.5104797,17.2111523 C52.7727031,15.7081305 52.0228384,14.7663608 50.5013552,14.7982274 C49.7252683,14.8144546 48.9477703,14.9229892 48.178621,15.0401078 C47.8205627,15.0945515 47.6111369,15.0900831 47.6063157,14.6584141 C47.6038463,14.4460485 47.5354096,14.2353292 47.5088345,14.0223756 C47.3938325,13.102595 47.3941853,13.0958924 48.2878612,12.925506 C49.5036131,12.6937382 50.721129,12.57709 51.9588701,12.7842817 C53.6730815,13.0713163 54.8285104,14.1933499 54.8962416,15.9355475 C54.987373,18.281094 54.9442179,20.6322847 54.9333997,22.9807708 C54.9326942,23.132343 54.7346744,23.3918618 54.5949788,23.417261 C52.6883918,23.7643835 50.7727505,24.0809329 48.840294,23.6181029 C47.1761754,23.219594 46.3117792,22.0678104 46.3397653,20.3423104 C46.3646942,18.8007195 47.3328039,17.6196562 48.9060262,17.2797066 C49.494206,17.152593 50.1033167,17.0773361 50.7043137,17.067341 C51.3046052,17.0572284 51.9068958,17.1584724 52.5104797,17.2111523" id="Fill-12" fill="#202020"></path>
            <path d="M99.9869996,23.6060735 C99.2851113,23.6060735 98.697637,23.5772642 98.1143958,23.6151279 C97.6416883,23.645701 97.4974067,23.4692 97.5052852,23.0124846 C97.5269215,21.7587514 97.5125757,20.5043126 97.5125757,19.2501091 C97.5125757,17.4667553 97.499053,15.6831664 97.5290381,13.9004006 C97.5330362,13.6635765 97.7182387,13.2624806 97.8880372,13.2215597 C99.682797,12.7888324 101.508365,12.5034441 103.346163,12.8644421 C105.305547,13.2493107 106.341976,14.5817109 106.405239,16.8121377 C106.465209,18.9269747 106.420055,21.0446338 106.432402,23.1609994 C106.434283,23.4851921 106.329276,23.6237119 105.992502,23.6106595 C105.503332,23.5917277 105.01134,23.582203 104.523345,23.6131289 C104.08615,23.6408798 103.942926,23.4824875 103.94763,23.0444688 C103.966915,21.2613502 103.961035,19.4778789 103.951158,17.6946427 C103.949041,17.3249431 103.918233,16.9505399 103.852265,16.5870725 C103.619439,15.3061763 102.866165,14.6947138 101.575861,14.8422879 C99.9076271,15.0330172 99.9779453,14.5838275 99.9852358,16.5501496 C99.9931142,18.6666328 99.9869996,20.783116 99.9869996,22.8994816 C99.9869996,23.1099658 99.9869996,23.32045 99.9869996,23.6060735" id="Fill-14" fill="#202020"></path>
            <path d="M13.7642796,9.25265099 C12.5398261,10.1720789 11.3982727,11.1459504 10.5232935,12.3985077 C8.16163735,15.7790719 7.75407411,19.4204484 9.1471502,23.2690166 C10.3613735,26.6234761 12.519248,29.1625739 15.8244377,30.6049198 C18.639752,31.8334889 21.5785346,32.1346342 24.600335,31.5302271 C24.6727698,31.5157636 24.750496,31.5283457 24.825753,31.5283457 C24.8372767,31.5804375 24.8488004,31.6325294 24.8602065,31.6846213 C23.8226018,31.9182706 22.7958152,32.248813 21.7452757,32.3675779 C18.5473271,32.7291638 15.4490939,32.3620512 12.6283706,30.6860561 C8.815667,28.4205877 6.68648419,25.0609543 6.10406621,20.652898 C5.41464229,15.4352419 8.53592292,11.5063605 12.7968755,9.63740198 C13.1144832,9.49805909 13.4416156,9.38035257 13.7642796,9.25265099 Z M23.6656088,25.7891003 C25.2911582,24.6687129 26.560178,23.229542 27.4811345,21.4861685 C28.4479507,19.6562495 29.0560031,17.7140331 28.8698598,15.6334145 C28.606343,12.6876942 26.954924,10.6141309 24.4639201,9.16249555 C22.5059467,8.02153014 20.3496009,7.73684733 18.1265821,7.8201003 C14.1019833,7.97084931 10.6813212,9.44200445 7.98924022,12.4895568 C7.91210188,12.5768078 7.842842,12.6709965 7.72795761,12.7264985 C8.26016512,11.5616625 9.0339003,10.5703878 9.94686077,9.69658449 C12.608839,7.14913785 15.811844,5.94514476 19.4792076,6.01463982 C24.6250169,6.11212105 28.8530446,9.3097169 30.1352343,13.6463967 C31.6736503,18.8501774 28.6803064,24.1679017 23.6656088,25.7891003 Z M24.8279519,13.8010027 C22.0561456,12.8599384 19.4958817,13.1636707 17.7207592,15.4672378 C16.0809815,17.5953624 16.3982365,20.0095807 17.7864914,22.2428297 C14.8471208,21.575395 12.3819865,19.1074384 12.6209272,15.9890975 C12.659026,15.4928722 12.8538708,14.9357359 13.1553689,14.5447527 C14.9073264,12.272229 17.3002612,11.4734473 20.0913521,11.6915748 C21.7292483,11.8195116 23.2303886,12.307388 24.4789479,13.4249533 C24.5906574,13.5250214 24.6843758,13.6451973 24.8279519,13.8010027 Z M26.9994902,21.1070265 C25.5647876,24.0224089 23.2759191,25.8502113 20.0799695,26.4105225 C15.609591,27.1942528 11.4378884,23.4419899 11.6337916,18.8628417 C11.6626009,18.1888219 11.7858341,17.5186826 11.8653242,16.8467794 C11.9195327,16.8446628 11.9738588,16.8426638 12.0280673,16.8405472 C12.0725159,17.0646717 12.112261,17.2898545 12.1620011,17.5128032 C12.6905633,19.885983 14.2015811,21.4405087 16.372508,22.3493536 C18.790842,23.3617943 21.2873726,23.8971767 23.8923203,23.0393654 C25.0856127,22.6465008 26.0964072,21.9620156 26.9994902,21.1070265 Z M17.3150303,18.4362996 C18.187305,18.3450506 18.8546222,18.3270595 19.4980689,18.1933609 C20.1309325,18.0618964 20.6239829,17.6639755 20.9381805,17.0801464 C21.5156598,16.0070298 21.2520254,15.1850832 20.0517952,14.3587858 C21.2318001,13.8745545 22.4305017,13.6786514 23.6583653,14.0163668 C25.7997774,14.6052522 26.751307,16.4980812 25.3363594,18.5535358 C23.9444592,20.5755951 20.6201025,21.1887038 18.6161519,19.770346 C18.1440323,19.4362759 17.7912655,18.9332304 17.3150303,18.4362996 Z M29.447245,26.1358936 C29.6396205,27.5192098 28.6789189,29.2482375 27.2941916,30.0216199 C26.0081214,30.7399707 24.6031689,31.0961475 23.1554139,31.2035062 C19.7654426,31.4547938 16.5736086,30.8560309 13.7722875,28.7874064 C13.4680849,28.5629292 13.1810503,28.3151693 12.9074208,28.0756406 C18.8782341,31.3865922 24.340828,30.5198442 29.447245,26.1358936 Z" id="Combined-Shape" fill="#E0191E"></path>
            <path d="M120.222714,23.9262917 C119.542815,23.800354 118.625739,23.6294972 117.70831,23.4611099 C117.253829,23.3777393 117.156583,23.0950555 117.255475,22.6856109 C117.337905,22.3441326 117.423392,22.0017136 117.474308,21.6548263 C117.530986,21.2687818 117.702901,21.2403253 118.042733,21.3568559 C119.181229,21.7472512 120.340891,21.9847808 121.555703,21.7453698 C122.014299,21.6550615 122.389408,21.4830289 122.488183,20.9892729 C122.589309,20.4831702 122.349193,20.1005358 121.924461,19.8655931 C121.447874,19.6020763 120.944593,19.3853599 120.446839,19.1620585 C120.055268,18.9863806 119.64547,18.8502126 119.259308,18.6643045 C117.842714,17.9824063 117.196681,16.8743658 117.380472,15.4744696 C117.562147,14.0908006 118.548366,13.100937 120.042333,12.8044953 C121.378261,12.5394498 122.68926,12.7054854 123.990499,13.0352047 C124.338797,13.1233964 124.473554,13.3251791 124.369253,13.6879409 C124.245197,14.1190219 124.27283,14.7110822 123.993674,14.9427324 C123.773547,15.125348 123.189954,14.8354913 122.764752,14.813267 C122.105784,14.7788134 121.441171,14.7521208 120.784907,14.8011553 C120.314669,14.8361968 119.920158,15.0951277 119.836435,15.6162818 C119.748949,16.160013 120.060207,16.5201879 120.500459,16.7508974 C120.913549,16.9674962 121.36027,17.1194211 121.79041,17.3040358 C122.256768,17.5041721 122.732062,17.6874933 123.184309,17.9159686 C124.490722,18.5759953 125.133228,19.4505042 124.954375,21.1618935 C124.807272,22.5691978 123.855507,23.4460585 122.292397,23.7120447 C121.69728,23.8132887 121.089345,23.8393935 120.222714,23.9262917" id="Fill-20" fill="#202020"></path>
            <path d="M115.348641,21.4361226 C115.459763,21.9351701 115.607455,22.4596167 115.674245,22.994176 C115.69106,23.1288153 115.479283,23.3779863 115.321949,23.4348993 C114.043169,23.8979645 112.731229,24.0195515 111.409765,23.6415031 C110.01222,23.2418183 109.175928,22.1642333 109.137947,20.5128143 C109.062337,17.2270268 109.067041,13.9394754 109.035056,10.6526295 C109.031646,10.306095 109.153821,10.1073697 109.527636,10.0633914 C110.030917,10.0041266 110.535609,9.93039832 111.027954,9.81363251 C111.419642,9.72061966 111.518652,9.86666512 111.513361,10.2209606 C111.502895,10.9254359 111.527707,11.6308519 111.504777,12.3347392 C111.490313,12.7812244 111.632243,12.9656039 112.108831,12.9473776 C112.988396,12.9139823 113.870666,12.9547857 114.750937,12.9307975 C115.17461,12.9192738 115.335236,13.0468578 115.338882,13.4940485 C115.351699,15.0222343 115.367338,15.0221167 113.846796,15.0221167 C113.220399,15.0221167 112.59365,15.0349339 111.967724,15.0172956 C111.635536,15.0078884 111.505012,15.144762 111.511127,15.4637807 C111.541582,17.0474685 111.529235,18.6331552 111.609784,20.214256 C111.66117,21.2212876 112.266048,21.7418539 113.272726,21.7085762 C113.927109,21.6870574 114.577258,21.5421878 115.348641,21.4361226" id="Fill-22" fill="#202020"></path>
        </g>
    </g>
</svg>