<?xml version="1.0" encoding="UTF-8"?>
<svg width="132px" height="38px" viewBox="0 0 132 38" version="1.1" xmlns="http://www.w3.org/2000/svg" xmlns:xlink="http://www.w3.org/1999/xlink">
    <!-- Generator: Sketch 48.1 (47250) - http://www.bohemiancoding.com/sketch -->
    <title>Slice Copy 4</title>
    <desc>Created with Sketch.</desc>
    <defs></defs>
    <g id="UI-kit" stroke="none" stroke-width="1" fill="none" fill-rule="evenodd">
        <g id="ic_paxum">
            <rect id="Rectangle-11-Copy" fill-opacity="0" fill="#D8D8D8" x="0" y="0" width="132" height="38"></rect>
            <path d="M112.884213,18.2346616 C112.884744,19.6486177 112.873857,21.0627043 112.892179,22.4763992 C112.896826,22.8375593 112.804153,22.9805348 112.413018,22.9715254 C111.396012,22.9482837 110.378077,22.9525926 109.360806,22.9673471 C109.030611,22.9721783 108.899303,22.8665461 108.852701,22.5342423 C108.773439,21.9682159 108.815792,21.4046704 108.813004,20.8408638 C108.803843,19.0571299 108.809153,17.2733961 108.811012,15.4896623 C108.813269,13.3911212 106.455569,12.0172505 104.596413,13.0717439 C103.634374,13.6175317 103.021515,14.4063126 103.042625,15.604565 C103.082456,17.8661896 103.03997,20.1292505 103.065992,22.3912668 C103.071303,22.8609316 102.926055,22.9864105 102.468535,22.9706114 C101.562789,22.9395355 100.653857,22.9331375 99.7487749,22.9732228 C99.2551421,22.9951588 99.1705686,22.8114451 99.1744189,22.3749454 C99.1951308,20.0909931 99.1687099,17.8066491 99.1916788,15.5228274 C99.2026986,14.4373886 98.7324331,13.6213183 97.8269528,13.0797087 C96.8957155,12.5225612 95.9002184,12.5938531 94.9912862,13.1431664 C94.0925771,13.6862122 93.4882155,14.3897301 93.5279133,15.5723139 C93.6035912,17.8322411 93.5322946,20.0964771 93.5634952,22.3584934 C93.5705319,22.8624984 93.4234246,22.9962034 92.9321816,22.9736146 C92.1155234,22.93601 91.2954133,22.9467169 90.4776929,22.9686529 C90.0885489,22.9790986 89.9373257,22.8822147 89.9399811,22.4624281 C89.9568427,19.7434124 89.8944415,17.0229605 89.9658709,14.3056422 C90.0010545,12.9661117 90.8284669,11.9009115 91.7169528,10.9544005 C94.0799641,8.43685625 98.4844218,8.17114375 101.190374,10.3448939 C101.378639,10.4959648 101.507292,10.6971751 101.781591,10.4242812 C103.781747,8.43528939 107.933015,8.26345763 110.659812,10.5574639 C111.199648,11.0117213 111.682659,11.5166403 112.088134,12.0932429 C112.615224,12.8427219 112.944357,13.6298054 112.898021,14.5807558 C112.838806,15.7962436 112.883682,17.0164319 112.884213,18.2346616" id="Fill-4" fill="#050707"></path>
            <path d="M25.3404195,21.0957258 C25.3402867,19.2028344 25.3371003,17.3100736 25.3409506,15.4171822 C25.3470579,12.3834898 28.0462387,9.45960778 31.115976,9.14584507 C33.6333969,8.88848914 35.8859449,9.37695618 37.5402387,11.4266637 C41.3035579,16.0896241 37.932702,21.755894 34.2072218,22.6531797 C33.5828121,22.8035977 32.9565438,22.910405 32.3126172,22.9362581 C31.9340946,22.951535 31.7494138,22.8714948 31.7629562,22.439304 C31.7936257,21.4610642 31.790041,20.4809964 31.7633545,19.502626 C31.7528658,19.1207051 31.9003715,19.0552889 32.2540664,19.0154647 C33.5705975,18.8672663 34.7077585,18.4028244 35.2130749,17.0636856 C35.7949986,15.521378 35.2479929,14.0482732 33.8778234,13.3941112 C32.3420918,12.6608231 30.4271737,13.1470704 29.594185,14.4751106 C29.3662218,14.8384904 29.2759393,15.2196279 29.2771342,15.649599 C29.2873573,19.4569261 29.2731511,23.2642531 29.2946596,27.0714496 C29.297315,27.5476429 29.2092895,27.7156881 28.6888376,27.6890516 C27.7622472,27.6413931 26.8299477,27.6471382 25.9026935,27.688007 C25.4155664,27.7095513 25.3256822,27.5387641 25.3305946,27.100567 C25.353298,25.0991709 25.3405523,23.0973831 25.3404195,21.0957258" id="Fill-6" fill="#050707"></path>
            <path d="M51.0907105,18.6777421 C51.0912415,17.5684088 51.0344167,16.4554195 51.1079703,15.3509173 C51.175815,14.3294584 50.6528404,13.7655212 49.813346,13.3728934 C47.8177048,12.439309 45.4426116,13.6175839 45.2615155,15.6231583 C45.1319336,17.0582669 46.2108093,18.5129612 47.7797331,18.8665481 C48.3907331,19.0041702 48.5387698,19.2467716 48.5142076,19.8206323 C48.4761031,20.7098225 48.5248291,21.6035827 48.5613404,22.4944703 C48.5751483,22.8296467 48.5188545,22.9740585 48.1254619,22.904464 C46.4361172,22.6055864 44.925346,21.9497271 43.6293941,20.8295563 C41.4478771,18.9439769 40.7995692,16.0490817 41.9304901,13.2078513 C42.9646229,10.6090918 45.289928,9.13154752 48.2226483,9.20936798 C51.6187302,9.29959272 54.1312387,11.3111734 54.9097924,14.5704929 C54.9597133,14.7794069 54.9846737,14.9988972 54.9852048,15.2135563 C54.9903828,17.6062745 54.9747161,19.9989926 55.0000749,22.391319 C55.0049873,22.8656844 54.8484534,22.9850265 54.3967754,22.9713165 C53.4687246,22.9432437 52.5386822,22.9461163 51.6104986,22.9714471 C51.2111314,22.9822845 51.0723884,22.8727352 51.0807528,22.4622192 C51.1065099,21.2011621 51.0901794,19.9393215 51.0907105,18.6777421" id="Fill-8" fill="#050707"></path>
            <path d="M88.0913941,15.2279844 C88.2869619,18.9117911 84.7553234,22.8940836 80.4341116,22.924115 C76.0011088,22.9549298 72.1953037,18.6242732 72.8028517,14.3091546 C73.0731681,12.389496 74.0208686,10.850975 75.3781596,9.50426315 C75.6421031,9.2424678 75.7921314,9.28999573 76.0037641,9.54317338 C76.5373602,10.1810139 77.0761342,10.8155902 77.6397359,11.4275777 C77.8711511,11.6787967 77.8427387,11.8396605 77.633363,12.0833065 C77.3637105,12.3969386 77.1233997,12.7420384 76.9160155,13.0990202 C75.5799675,15.3998162 76.6776963,18.282046 79.2163602,18.9129662 C81.1264986,19.3875927 82.5598658,18.9467842 83.6282528,17.6081677 C84.7534647,16.1981288 84.855298,14.6532098 83.9183517,13.0577597 C83.7640749,12.7950503 83.6193573,12.507663 83.400024,12.3048859 C82.9207302,11.8614659 83.0608008,11.5396078 83.4723828,11.138754 C83.9572528,10.6664778 84.3879534,10.1368809 84.8114845,9.60845901 C85.0539195,9.30631714 85.2237302,9.24272894 85.5300268,9.54865738 C87.1270975,11.1430629 88.1527331,12.9754998 88.0913941,15.2279844" id="Fill-10" fill="#050707"></path>
            <path d="M71.0496588,11.9358785 C70.9656164,12.0270172 70.8664384,12.1393085 70.7620825,12.2467686 C69.6627605,13.3790825 68.5739271,14.5214503 67.4552209,15.6348314 C67.1571559,15.9314893 67.1203791,16.0983593 67.4391559,16.4144723 C68.513252,17.4791503 69.5252124,18.6050662 70.6143113,19.653945 C71.0755486,20.0981484 71.0613424,20.3541986 70.5973169,20.7695458 C69.9778198,21.3242124 69.4124921,21.9423367 68.8662831,22.5690787 C68.573396,22.9050385 68.4146051,22.9080417 68.1118932,22.5720819 C67.0271757,21.3682149 65.8982463,20.2029971 64.8079525,19.0039613 C64.5214384,18.6888929 64.3578678,18.6566418 64.052235,18.9956048 C62.9523819,20.2154014 61.8085825,21.39681 60.7040825,22.6125589 C60.4489017,22.8934177 60.3116192,22.9248854 60.0442237,22.6287498 C59.4131757,21.9301936 58.7615486,21.2470448 58.082704,20.5935357 C57.7625994,20.2853876 57.808139,20.0993235 58.0973085,19.8088025 C59.2105712,18.6907209 60.2895797,17.5392131 61.405896,16.424004 C61.7050232,16.1251264 61.7169723,15.9527724 61.4084186,15.6469745 C60.2873226,14.5359438 59.2133593,13.3788213 58.0880147,12.2720994 C57.7680429,11.9575533 57.7993763,11.7921195 58.1007605,11.5096939 C58.7567689,10.8949645 59.399235,10.2633913 60.0065175,9.60270082 C60.3385712,9.24141017 60.5304215,9.32066692 60.8339299,9.63338506 C61.9023169,10.7344924 63.0077463,11.8007372 64.0805147,12.8979274 C64.3366249,13.1598534 64.4789525,13.1804836 64.7495345,12.9028891 C65.8357124,11.7884635 66.9613226,10.7111202 68.0480316,9.59708625 C68.3462294,9.29128839 68.5205542,9.26151814 68.8269836,9.59173283 C69.4671927,10.2819325 70.1569243,10.9276073 70.8218282,11.5958709 C70.9098537,11.6845288 71.0488621,11.7438082 71.0496588,11.9358785" id="Fill-12" fill="#050707"></path>
            <path d="M31.8580847,5.06100188 C31.8580847,5.49593471 31.804048,5.93922411 31.8709633,6.36397238 C31.9666893,6.97256497 31.616048,7.11358192 31.1398079,7.17455869 C27.2053503,7.67830257 23.7566921,10.9442812 23.1373277,14.9448537 C23.0408051,15.5685926 22.8451045,15.8837916 22.1124887,15.8063628 C21.3255706,15.723189 20.5209944,15.7623603 19.7266412,15.7997037 C19.2391158,15.8225537 19.0874944,15.691199 19.0893531,15.1868023 C19.1086045,10.1416598 22.5138475,5.4346968 27.3904294,3.73439799 C28.6614209,3.29123917 29.9739689,3.10465286 31.308822,3.00515756 C31.7500113,2.97238418 31.8943305,3.13155053 31.8631299,3.5608688 C31.8270169,4.0586064 31.8547655,4.56078343 31.8547655,5.06100188 L31.8580847,5.06100188 Z" id="Fill-14" fill="#A51E22"></path>
            <path d="M53.3704893,29.5479814 C53.0279469,30.568918 52.7163395,31.4699902 52.4265062,32.3777215 C52.3372859,32.657144 52.230009,32.8088678 51.8866701,32.7964635 C51.5688226,32.7849733 51.4826559,32.6369055 51.4059158,32.3825527 C51.0680203,31.2610762 50.7043678,30.1469117 50.3761644,29.0226933 C50.3306249,28.8669218 50.0851362,28.5730059 50.4710938,28.5052394 C50.7268056,28.4601923 51.041865,28.3847222 51.1452915,28.8107761 C51.3792294,29.7738697 51.6519356,30.7278232 51.958365,31.8700605 C52.2900203,30.8436399 52.5660458,29.9795194 52.849639,29.1178797 C52.9457633,28.8257918 52.9360712,28.4514441 53.4298367,28.4772972 C53.8848339,28.5011917 53.8435429,28.8606544 53.9294441,29.1259751 C54.2087887,29.9877454 54.4718028,30.8547385 54.7868621,31.8666657 C55.0539921,30.924333 55.2807605,30.1217115 55.5093876,29.3194817 C55.5628932,29.1315897 55.6312689,28.9473537 55.6773395,28.7578948 C55.771074,28.3727096 56.0875938,28.4618898 56.3206023,28.5049783 C56.648009,28.5656939 56.4602746,28.8229193 56.4112831,28.9763405 C56.0486927,30.1128326 55.6651249,31.2427962 55.2966927,32.3774604 C55.2182266,32.6192783 55.1493198,32.8054729 54.8181955,32.7965941 C54.4992859,32.7879764 54.3621362,32.6871754 54.272252,32.3755018 C54.0097689,31.4658119 53.7001531,30.5690486 53.3704893,29.5479814" id="Fill-16" fill="#262727"></path>
            <path d="M36.0594333,30.6896964 C36.0559814,31.6320291 36.4082158,32.1509193 37.1096311,32.2367046 C37.8370689,32.3257542 38.4139475,31.8284083 38.5240124,31.0171691 C38.6683316,29.9539274 38.2364362,29.1725891 37.4572186,29.0870649 C36.5605011,28.9887448 36.0635492,29.5584271 36.0594333,30.6896964 M36.0569107,32.3589193 C36.0569107,32.9790021 36.0504051,33.5194365 36.0595661,34.0597404 C36.064213,34.3362903 36.0932893,34.5805891 35.6732102,34.5698822 C35.3237638,34.5608728 35.2263119,34.4360467 35.2276395,34.0999563 C35.2344107,32.3608778 35.2208684,30.6217994 35.2037412,28.8827209 C35.2014842,28.6505652 35.2484842,28.5219525 35.5096395,28.483434 C35.9321085,28.4211515 35.9416678,28.7364811 36.0077864,29.0016713 C37.3063938,28.2195495 38.1944814,28.2259475 38.8575266,29.0072859 C39.6019588,29.8845941 39.558278,31.5073336 38.7683062,32.3241873 C38.0813627,33.0344949 37.0986113,33.0702714 36.0569107,32.3589193" id="Fill-18" fill="#262727"></path>
            <path d="M63.2112404,29.0577908 C63.8656556,28.4502428 64.4981641,28.2054217 65.2269297,28.5612284 C65.9618025,28.9199076 66.1074494,29.5935247 66.1105031,30.3214594 C66.1132912,30.9948153 66.0960314,31.6686935 66.120328,32.341266 C66.1324099,32.6757896 66.0400031,32.8037494 65.6805992,32.7942177 C65.3510681,32.7854694 65.274328,32.6636465 65.2832234,32.3625492 C65.3028732,31.6898461 65.3067234,31.0154456 65.2818958,30.3430036 C65.2492347,29.4636063 64.9263421,29.0845579 64.2724579,29.0938285 C63.6165822,29.1032296 63.2185427,29.5869961 63.2132319,30.391315 C63.2089833,31.0429961 63.1931839,31.6953301 63.2202686,32.345836 C63.2347404,32.6938084 63.1132573,32.7960457 62.7708477,32.7953928 C62.4449014,32.79474 62.3644438,32.6795761 62.3665681,32.3739089 C62.3790483,30.5712422 62.375198,28.7683144 62.3682941,26.9656477 C62.3672319,26.6669007 62.4083901,26.4745692 62.7922234,26.475875 C63.181102,26.4771807 63.217215,26.6812635 63.2136302,26.9750488 C63.2057969,27.6230739 63.2112404,28.2710991 63.2112404,29.0577908" id="Fill-20" fill="#262727"></path>
            <path d="M83.2447116,30.1955234 C83.3542455,30.1955234 83.4693556,30.2170677 83.5719856,30.1912146 C83.822254,30.1282792 84.2201607,30.4028706 84.3063274,30.0176854 C84.3893076,29.6469936 84.1767455,29.2981072 83.8068528,29.1189635 C83.2919771,28.8695724 82.8229065,28.9646282 82.446641,29.3912045 C82.2765647,29.5841888 82.0774121,29.8215674 82.1913274,30.0823181 C82.2983387,30.3271392 82.5823302,30.1630112 82.7854658,30.1903006 C82.9358924,30.2105391 83.0914969,30.1943483 83.2447116,30.1955234 Z M83.6169941,30.8093389 C83.2856042,30.8093389 82.9508952,30.8384562 82.6233556,30.8029409 C82.0451494,30.7405278 82.0536466,31.02217 82.2031438,31.420804 C82.4569969,32.0976854 83.2603782,32.4060947 84.2334376,32.1950915 C84.4697653,32.1439076 84.7700873,31.9066596 84.8579799,32.3452485 C84.9353839,32.7314782 84.59085,32.7414016 84.3458924,32.7881461 C83.3770816,32.9729045 82.4121212,33.0048944 81.7521297,32.1277168 C81.1132483,31.2787425 81.1468387,30.3391518 81.6244065,29.4174493 C82.0434234,28.6090827 82.994576,28.2181524 83.8696523,28.4679352 C84.6808669,28.6996992 85.2349093,29.5674757 85.1637455,30.4524876 C85.1406438,30.7385692 85.0113274,30.8229183 84.7437992,30.8145617 C84.3685958,30.8028103 83.9925958,30.8115586 83.6169941,30.8115586 L83.6169941,30.8093389 Z" id="Fill-22" fill="#262727"></path>
            <path d="M46.1539446,31.745378 C46.4909107,30.7630905 46.8144672,29.8476555 47.1147893,28.9249085 C47.1874136,28.7016316 47.246761,28.4998991 47.5217243,28.4944151 C47.6916678,28.4910202 47.8967949,28.4188143 48.0235887,28.570277 C48.1433458,28.7135136 47.9959729,28.853486 47.9414051,28.989019 C47.3663853,30.4173379 46.8900124,31.8852198 46.1916508,33.2644439 C45.8888062,33.8625908 45.4570435,34.3420485 44.8259955,34.6278689 C44.6559192,34.704906 44.4908881,34.796567 44.4059164,34.5403862 C44.3429842,34.3509273 44.1536565,34.144233 44.4592893,33.9818024 C44.6139644,33.8996731 44.7703655,33.8157158 44.9095068,33.7113893 C45.6141085,33.1825758 45.7363881,32.7424201 45.410309,31.9416266 C45.0255463,30.9968131 44.627374,30.0569612 44.263987,29.1043134 C44.1965407,28.9275199 43.8628938,28.6494031 44.2438062,28.517265 C44.5219559,28.4207729 44.8917158,28.3851269 45.0428062,28.8426486 C45.3213542,29.6862694 45.6473006,30.5148746 45.9575802,31.3483109 C46.0013938,31.465825 46.0687073,31.574852 46.1539446,31.745378" id="Fill-24" fill="#262727"></path>
            <path d="M70.8135701,30.1992839 C71.0339655,30.1992839 71.2563525,30.1806122 71.474491,30.2029399 C72.0289316,30.2598689 72.0738073,30.0247101 71.8725305,29.5973504 C71.5274655,28.864454 70.5336944,28.7710955 70.0371407,29.4409261 C69.8970701,29.6299932 69.7096011,29.8621489 69.8147537,30.0871232 C69.9218977,30.3164063 70.2112,30.1627239 70.4173893,30.1944527 C70.5464401,30.2142996 70.6813328,30.1981087 70.8135701,30.1992839 Z M71.2093525,30.8076153 C70.9220418,30.8076153 70.6345983,30.8064402 70.3472876,30.8078765 C69.6806576,30.8111407 69.5862593,30.9744854 69.9058328,31.5688457 C70.2195644,32.1518463 70.9674486,32.3870051 71.9032,32.1882757 C72.1269147,32.1407478 72.3903271,31.9439769 72.4950814,32.316105 C72.6036859,32.7022041 72.2850418,32.7352387 72.0273384,32.7831583 C71.0105983,32.9723561 70.0016915,33.0167503 69.3394429,32.0533956 C68.7402593,31.1818325 68.794296,30.2380635 69.3091718,29.3365996 C69.7603186,28.5467741 70.7267395,28.2099003 71.601152,28.4921954 C72.3342989,28.7290516 72.8393497,29.568233 72.7940757,30.416685 C72.7769486,30.7380208 72.6309034,30.8258953 72.3365559,30.8155802 C71.9612198,30.8026536 71.585087,30.8124465 71.2093525,30.8124465 L71.2093525,30.8076153 Z" id="Fill-26" fill="#262727"></path>
            <path d="M42.6318921,31.011659 C42.6349458,30.8421775 42.6945588,30.5942227 42.2458017,30.6236013 C41.3537311,30.6819666 40.8049994,31.0042164 40.8291633,31.5725931 C40.848813,32.034293 41.1095701,32.2795058 41.5982904,32.2671016 C42.2589458,32.2503884 42.6383977,31.8270765 42.6318921,31.011659 M43.446426,31.228799 C43.446426,31.619207 43.4466915,32.0096151 43.4461605,32.4001537 C43.4460277,32.5390815 43.5485249,32.7328492 43.3131266,32.766406 C43.144378,32.7904311 42.8307791,32.7925203 42.813652,32.7361135 C42.6337508,32.1452786 42.3832169,32.57303 42.1734429,32.6817959 C41.4748158,33.0437394 40.6559006,32.9213941 40.255604,32.3838323 C39.8371181,31.8215925 39.916248,31.097836 40.4599345,30.6250375 C40.8557169,30.2808517 41.3494825,30.1904964 41.8504175,30.080686 C42.103474,30.0251932 42.6320249,30.3029183 42.5874147,29.7285353 C42.5503723,29.2537783 42.1812763,29.0247563 41.709152,29.011438 C41.4011294,29.0026898 41.0919119,29.0502177 40.8113723,29.1899289 C40.6156718,29.2873351 40.4757339,29.2646157 40.3877085,29.0563546 C40.3016746,28.8526634 40.3989938,28.7433753 40.5749119,28.6400934 C41.9025955,27.8605831 43.3748638,28.6227274 43.4210672,30.1220771 C43.4324853,30.4905492 43.4227932,30.8598046 43.4227932,31.228799 C43.4306266,31.228799 43.4384599,31.228799 43.446426,31.228799" id="Fill-28" fill="#262727"></path>
            <path d="M76.038576,31.1335081 C76.0254319,30.8879036 76.1203613,30.606392 75.6712059,30.6160542 C74.8271975,30.6342036 74.2215082,30.988574 74.2289432,31.5459827 C74.2349178,32.0019375 74.4699178,32.269478 74.9670025,32.2679111 C75.6239404,32.265822 76.0298133,31.8408126 76.038576,31.1335081 M76.8414263,31.1661509 C76.8414263,31.5786255 76.8365138,31.9911001 76.8439489,32.4034441 C76.8466042,32.5502062 76.9273274,32.7319613 76.7066664,32.7706104 C76.5185336,32.8036449 76.2058641,32.8661886 76.1604573,32.6897868 C76.0154743,32.1259802 75.8230929,32.5392382 75.6520873,32.6355997 C75.0920703,32.9511905 74.5189093,33.0023744 73.9591579,32.6686343 C73.4640647,32.3735433 73.3311636,31.8874265 73.4308726,31.3626606 C73.5665619,30.6481748 74.1341466,30.3515169 74.773559,30.1668891 C74.9833331,30.1063041 75.2131551,30.1151829 75.4262483,30.0628239 C75.6279234,30.0133374 75.9712624,30.1893474 75.9822822,29.7998534 C75.9907794,29.5013675 75.8479206,29.2531515 75.5549008,29.1206217 C75.1211466,28.9245037 74.6863302,29.0147284 74.2633302,29.1492168 C74.0749319,29.209149 73.9129545,29.3668791 73.7930647,29.0649984 C73.6737059,28.7644234 73.8793641,28.6792909 74.0875449,28.5908942 C75.6386777,27.9317705 76.7954884,28.6659726 76.8112879,30.3188741 C76.814076,30.6012997 76.8116862,30.8837253 76.8116862,31.1661509 C76.8216438,31.1661509 76.8314686,31.1661509 76.8414263,31.1661509" id="Fill-30" fill="#262727"></path>
            <path d="M59.6003658,30.6126202 C59.6003658,30.3307169 59.6008969,30.048683 59.6002331,29.7667797 C59.5995692,29.4323867 59.7108291,29.0346667 59.1132387,29.0992994 C58.9047924,29.1218883 58.9087754,28.91428 58.9127585,28.7620339 C58.9174054,28.5810621 59.012202,28.4705989 59.2023263,28.4907068 C59.5403545,28.5264834 59.6440466,28.3529542 59.5966483,28.0655669 C59.5204393,27.6033446 59.9115749,27.554511 60.1718008,27.5299636 C60.5374449,27.4954928 60.3814421,27.8347169 60.3761314,28.0121632 C60.366041,28.3592216 60.4528715,28.5309228 60.8562218,28.5011525 C61.0974619,28.4833949 61.4929788,28.3156108 61.5142218,28.787887 C61.5363941,29.2811852 61.1229534,29.1179711 60.890476,29.0990383 C60.4648206,29.0643063 60.3576766,29.2233421 60.3767952,29.6124444 C60.4066681,30.2184256 60.3870184,30.8266265 60.3929929,31.4337828 C60.3976398,31.9041004 60.5497924,32.255076 61.1183065,32.2106817 C61.3280805,32.1943603 61.4560692,32.231312 61.4761172,32.4672542 C61.4974929,32.7191262 61.3652556,32.7986441 61.1411427,32.8542674 C60.315589,33.0591337 59.6869308,32.631774 59.6251935,31.7827997 C59.5969138,31.3946114 59.6202811,31.0027671 59.6202811,30.6126202 C59.6136427,30.6126202 59.6070042,30.6126202 59.6003658,30.6126202" id="Fill-32" fill="#262727"></path>
            <path d="M78.8385678,32.8887774 C78.6873446,32.8573097 78.3825085,32.8096512 78.0878955,32.7271302 C77.884096,32.66994 77.7502655,32.5552984 77.8400169,32.2935031 C77.9289718,32.0341886 78.0740876,32.0025903 78.2881102,32.1142288 C78.5743588,32.2636023 78.8803898,32.2655608 79.1902712,32.2513286 C79.5138277,32.2364434 79.7387373,32.0781911 79.8153446,31.7706958 C79.8875706,31.4812193 79.7404633,31.2557228 79.4943107,31.1154893 C79.2290395,30.9642878 78.9426582,30.8493851 78.6675621,30.714505 C78.1504294,30.4609356 77.8101441,30.082279 77.9090565,29.4807372 C78.0094294,28.8709695 78.4369435,28.5531591 79.0297542,28.4376035 C79.3813249,28.3691842 79.7301073,28.3942539 80.0745085,28.5036726 C80.3052599,28.5770536 80.4793192,28.6561798 80.3895678,28.9559714 C80.3031356,29.2449255 80.1246949,29.1748088 79.9259407,29.1187937 C79.6942599,29.0536387 79.4643051,28.9687674 79.2136384,29.0305276 C78.9619096,29.0924183 78.7531977,29.211891 78.6955763,29.4731641 C78.6362288,29.7416186 78.7838672,29.931208 79.0134237,30.0560341 C79.1860226,30.1499149 79.3667203,30.2303468 79.5470198,30.3097341 C80.4291328,30.6983141 80.7473785,31.1794692 80.5897825,31.8922576 C80.454226,32.5055508 79.8422966,32.8878634 78.8385678,32.8887774" id="Fill-34" fill="#262727"></path>
            <path d="M57.3201887,30.6400793 C57.320587,30.0544673 57.3282876,29.4687247 57.317135,28.8833738 C57.3122226,28.6252344 57.3650644,28.4712909 57.6773356,28.4823895 C57.949909,28.4920517 58.1416266,28.513596 58.1383073,28.8631352 C58.1268893,30.0559036 58.1286153,31.2489331 58.1470701,32.4415709 C58.1529119,32.8244058 57.9106096,32.7685213 57.667378,32.7894127 C57.3474062,32.8168326 57.3098328,32.6529657 57.3156746,32.3967849 C57.3286859,31.811434 57.3197904,31.2256914 57.3201887,30.6400793" id="Fill-36" fill="#262727"></path>
            <path d="M57.7264466,27.8047116 C57.4343562,27.7672377 57.2353364,27.6100299 57.2260427,27.3119357 C57.2167489,27.011883 57.4113873,26.8098893 57.7041415,26.7976156 C58.0010116,26.7852113 58.1906048,26.9723199 58.2066698,27.2794235 C58.2233986,27.5998453 58.014554,27.7344643 57.7264466,27.8047116" id="Fill-38" fill="#262727"></path>
        </g>
    </g>
</svg>