<?xml version="1.0" encoding="UTF-8"?>
<svg width="132px" height="38px" viewBox="0 0 132 38" version="1.1" xmlns="http://www.w3.org/2000/svg" xmlns:xlink="http://www.w3.org/1999/xlink">
    <!-- Generator: Sketch 48.1 (47250) - http://www.bohemiancoding.com/sketch -->
    <title>Slice Copy 3</title>
    <desc>Created with Sketch.</desc>
    <defs></defs>
    <g id="UI-kit" stroke="none" stroke-width="1" fill="none" fill-rule="evenodd">
        <g id="ic_paypal" transform="translate(-1.000000, 0.000000)">
            <rect id="Rectangle-11-Copy" fill-opacity="0" fill="#D8D8D8" x="0" y="0" width="132" height="38"></rect>
            <path d="M51.9386817,12 L46.1448609,12 C45.7483836,12 45.4112085,12.3042586 45.3493648,12.7176923 L43.0060824,28.4111702 C42.9594878,28.720798 43.1865304,29 43.4838883,29 L46.2499104,29 C46.6463877,29 46.9835628,28.6957414 47.0454065,28.2814129 L47.6773981,24.0486393 C47.7383946,23.6343107 48.0764169,23.3300521 48.472047,23.3300521 L50.306178,23.3300521 C54.1226955,23.3300521 56.325347,21.3792178 56.900578,17.5133442 C57.1598131,15.8220245 56.9115912,14.4931305 56.1618425,13.5624572 C55.3383897,12.5405064 53.8778623,12 51.9386817,12 Z M52.6071017,17.7316945 C52.2902588,19.9277254 50.7018081,19.9277254 49.1658822,19.9277254 L48.291599,19.9277254 L48.9049527,15.8264989 C48.9413812,15.5786177 49.1447029,15.3960625 49.3819115,15.3960625 L49.7826247,15.3960625 C50.8288842,15.3960625 51.8158415,15.3960625 52.3258401,16.0260567 C52.6299754,16.4019056 52.7231645,16.9603095 52.6071017,17.7316945 Z" id="Shape" fill="#253B80" fill-rule="nonzero"></path>
            <path d="M69.504419,17.2782504 L66.6492187,17.2782504 C66.4059818,17.2782504 66.1958739,17.4625461 66.1583858,17.7127908 L66.0319723,18.5403147 L65.8323263,18.2403824 C65.2142081,17.3107732 63.8358656,17 62.4601385,17 C59.3050332,17 56.6102472,19.4762478 56.0854134,22.9498607 C55.8125347,24.6826018 56.2004932,26.3394564 57.14903,27.4949183 C58.0191033,28.5573289 59.2640578,29 60.7452747,29 C63.2874928,29 64.6972207,27.3061055 64.6972207,27.3061055 L64.5699354,28.128209 C64.5219855,28.4425958 64.7556324,28.7244598 65.0598965,28.7244598 L67.6317563,28.7244598 C68.0406385,28.7244598 68.385878,28.4173003 68.4503924,27.9990213 L69.9935083,17.8726944 C70.0423301,17.5610178 69.809555,17.2782504 69.504419,17.2782504 Z M65.5245749,23.0365881 C65.2490808,24.7268689 63.9544327,25.8615524 62.3032115,25.8615524 C61.4741136,25.8615524 60.8115328,25.5860122 60.3860861,25.063841 C59.9641268,24.5452834 59.8037124,23.8071972 59.9379722,22.9850937 C60.1951582,21.3092675 61.5116017,20.1375442 63.1375403,20.1375442 C63.94833,20.1375442 64.6074235,20.416698 65.0415883,20.9433863 C65.476625,21.475495 65.6492447,22.2180983 65.5245749,23.0365881 Z" id="Shape" fill="#253B80" fill-rule="nonzero"></path>
            <path d="M84.4951996,17 L81.5845366,17 C81.3068252,17 81.045918,17.1368181 80.8884892,17.3657253 L76.8740561,23.2296088 L75.1724105,17.5946325 C75.0653944,17.2420628 74.7372704,17 74.3658093,17 L71.5055589,17 C71.1579774,17 70.9165277,17.336783 71.0270816,17.6612875 L74.2331446,26.9912296 L71.2190032,31.2106648 C70.9819756,31.5430626 71.220772,32 71.6302637,32 L74.537389,32 C74.8133315,32 75.0715854,31.8666901 75.2281297,31.642168 L84.9091133,17.78495 C85.1408343,17.4534292 84.9029223,17 84.4951996,17 Z" id="Shape" fill="#253B80" fill-rule="nonzero"></path>
            <path d="M93.9390812,12 L88.144155,12 C87.7485072,12 87.4113171,12.3042586 87.3494706,12.7176923 L85.0060838,28.4111702 C84.9594872,28.720798 85.1865398,29 85.4822166,29 L88.4559288,29 C88.7321197,29 88.9684917,28.787019 89.0116995,28.4970785 L89.6767605,24.0486393 C89.7377597,23.6343107 90.075797,23.3300521 90.4714448,23.3300521 L92.3048103,23.3300521 C96.1223451,23.3300521 98.3242476,21.3792178 98.9003514,17.5133442 C99.1604453,15.8220245 98.9105179,14.4931305 98.1607358,13.5624572 C97.3380935,12.5405064 95.8783482,12 93.9390812,12 Z M94.607531,17.7316945 C94.2915212,19.9277254 92.7029997,19.9277254 91.1661582,19.9277254 L90.2926832,19.9277254 L90.9069115,15.8264989 C90.9433416,15.5786177 91.1449779,15.3960625 91.3830443,15.3960625 L91.7837753,15.3960625 C92.8292342,15.3960625 93.8170828,15.3960625 94.327104,16.0260567 C94.6312529,16.4019056 94.723599,16.9603095 94.607531,17.7316945 Z" id="Shape" fill="#179BD7" fill-rule="nonzero"></path>
            <path d="M111.501349,17.2782504 L108.647752,17.2782504 C108.40276,17.2782504 108.194385,17.4625461 108.157767,17.7127908 L108.031348,18.5403147 L107.83082,18.2403824 C107.212672,17.3107732 105.835134,17 104.459339,17 C101.304079,17 98.6100334,19.4762478 98.0851739,22.9498607 C97.8131538,24.6826018 98.1993875,26.3394564 99.1479707,27.4949183 C100.01983,28.5573289 101.263102,29 102.744391,29 C105.286734,29 106.696531,27.3061055 106.696531,27.3061055 L106.569239,28.128209 C106.521287,28.4425958 106.754945,28.7244598 107.060968,28.7244598 L109.632082,28.7244598 C110.03924,28.7244598 110.38624,28.4173003 110.449886,27.9990213 L111.993949,17.8726944 C112.04103,17.5610178 111.807371,17.2782504 111.501349,17.2782504 Z M107.52131,23.0365881 C107.247546,24.7268689 105.951091,25.8615524 104.299789,25.8615524 C103.472394,25.8615524 102.808037,25.5860122 102.38257,25.063841 C101.96059,24.5452834 101.801911,23.8071972 101.934434,22.9850937 C102.193376,21.3092675 103.50814,20.1375442 105.134158,20.1375442 C105.944988,20.1375442 106.604114,20.416698 107.0383,20.9433863 C107.475101,21.475495 107.64773,22.2180983 107.52131,23.0365881 Z" id="Shape" fill="#179BD7" fill-rule="nonzero"></path>
            <path d="M115.376386,12.4313086 L113.006064,28.4112012 C112.95962,28.7208127 113.185928,29 113.480635,29 L115.863624,29 C116.259663,29 116.595747,28.6957574 116.656546,28.2814507 L118.993936,12.5896937 C119.04038,12.2800821 118.814072,12 118.519365,12 L115.850958,12 C115.615361,12.0008948 115.412697,12.1834404 115.376386,12.4313086 Z" id="Shape" fill="#179BD7" fill-rule="nonzero"></path>
            <path d="M18.283158,32 L18.7284589,29.047636 L17.7365364,29.0236402 L13,29.0236402 L16.2916501,7.23817988 C16.3018673,7.17241379 16.3350733,7.11109136 16.3836052,7.06754355 C16.432137,7.02399573 16.4942918,7 16.5590009,7 L24.545467,7 C27.1968376,7 29.0265727,7.57589762 29.9818835,8.71258443 C30.4297386,9.24582296 30.7149696,9.80305723 30.8529021,10.4162815 C30.9976462,11.0597227 31.0002005,11.8284749 30.8588622,12.766086 L30.848645,12.8345183 L30.848645,13.4353004 L31.2965001,13.7001422 C31.6736861,13.908994 31.9733914,14.1480626 32.203279,14.4217917 C32.5864251,14.8777106 32.8341928,15.4571632 32.9389194,16.1441522 C33.0470517,16.8506932 33.0112914,17.6914326 32.8341928,18.6432634 C32.6298483,19.7381799 32.2994913,20.6917881 31.853339,21.4720938 C31.442947,22.1910771 30.9201656,22.7874156 30.299469,23.2495556 C29.7068698,23.6885887 29.0027325,24.0218628 28.2066402,24.2351582 C27.4352396,24.4448987 26.5557066,24.5506577 25.59103,24.5506577 L24.969482,24.5506577 C24.5250326,24.5506577 24.0933547,24.7177391 23.7544834,25.0172414 C23.4147605,25.3229648 23.1899815,25.7406683 23.1210152,26.197476 L23.0741863,26.4632065 L22.2874598,31.6667259 L22.2516995,31.8578031 C22.2423337,31.9182368 22.2261564,31.9484536 22.2023162,31.9688944 C22.1810303,31.9875578 22.1503786,32 22.1205784,32 L18.283158,32 Z" id="Shape" fill="#253B80" fill-rule="nonzero"></path>
            <path d="M31.7830556,13 C31.7585043,13.1590404 31.7304458,13.3216348 31.6988799,13.4886717 C30.6142416,19.1314971 26.9034986,21.080853 22.1642343,21.080853 L19.7511991,21.080853 C19.1716147,21.080853 18.6832206,21.5073301 18.5929072,22.0866282 L17.3574542,30.0262106 L17.0075992,32.2767659 C16.9488516,32.6570413 17.2382054,33 17.6169958,33 L21.8968013,33 C22.4036088,33 22.8341322,32.6268325 22.9139237,32.1203909 L22.9560115,31.9000444 L23.7618179,26.7183474 L23.8135509,26.4340293 C23.8924656,25.9258108 24.3238657,25.5526433 24.8306733,25.5526433 L25.4707589,25.5526433 C29.6172863,25.5526433 32.8633097,23.8467348 33.8120394,18.9102621 C34.2083664,16.8480675 34.0031882,15.1261661 32.9545,13.9151488 C32.6370876,13.5499778 32.2433911,13.2470013 31.7830556,13 Z" id="Shape" fill="#179BD7" fill-rule="nonzero"></path>
            <path d="M30.881739,12.3968892 C30.7184072,12.347725 30.5498903,12.3030303 30.3770524,12.262805 C30.2033504,12.2234737 30.0253274,12.1886118 29.8421193,12.1582194 C29.2008908,12.050952 28.4983049,12 27.745596,12 L21.392076,12 C21.2356578,12 21.0870172,12.0366497 20.9539321,12.1027979 C20.6609719,12.2485027 20.4431962,12.5354429 20.3904806,12.8867435 L19.0388885,21.7416644 L19,22 C19.0890115,21.4171807 19.570365,20.9881112 20.1415941,20.9881112 L22.5198431,20.9881112 C27.1907864,20.9881112 30.8480356,19.0260123 31.9170378,13.349781 C31.9490128,13.1817288 31.9758027,13.0181461 32,12.8581389 C31.7295087,12.7097524 31.4365486,12.5828193 31.1211195,12.4746581 C31.0433424,12.4478412 30.9629728,12.4219183 30.881739,12.3968892 Z" id="Shape" fill="#222D65" fill-rule="nonzero"></path>
            <path d="M20.2936168,12.5999627 C20.3462392,12.2630637 20.5636298,11.9878867 20.856072,11.8490123 C20.9897846,11.7855758 21.1372997,11.7504286 21.2934414,11.7504286 L27.6357278,11.7504286 C28.3871059,11.7504286 29.0884496,11.7992918 29.7285443,11.9021618 C29.9114285,11.9313082 30.0891368,11.964741 30.2625317,12.0024599 C30.435064,12.0410362 30.6032829,12.0838986 30.7663259,12.1310473 C30.8474161,12.1550503 30.9276436,12.1799105 31.0061458,12.2047708 C31.3210172,12.308498 31.6134594,12.4310846 31.8834724,12.5725307 C32.2009318,10.5605665 31.8808844,9.19068207 30.7861671,7.95024227 C29.5793039,6.58464406 27.4010839,6 24.613825,6 L16.5220613,6 C15.9527048,6 15.4670264,6.41147969 15.379035,6.97126351 L12.008617,28.2010436 C11.942192,28.6210958 12.268278,29 12.6944328,29 L17.6901048,29 L18.9444144,21.0918748 L20.2936168,12.5999627 Z" id="Shape" fill="#253B80" fill-rule="nonzero"></path>
        </g>
    </g>
</svg>