<?xml version="1.0" encoding="UTF-8"?>
<svg width="132px" height="38px" viewBox="0 0 132 38" version="1.1" xmlns="http://www.w3.org/2000/svg" xmlns:xlink="http://www.w3.org/1999/xlink">
    <!-- Generator: Sketch 48.1 (47250) - http://www.bohemiancoding.com/sketch -->
    <title>Slice Copy 2</title>
    <desc>Created with Sketch.</desc>
    <defs></defs>
    <g id="UI-kit" stroke="none" stroke-width="1" fill="none" fill-rule="evenodd">
        <g id="ic_payza" transform="translate(-1.000000, 0.000000)">
            <rect id="Rectangle-11-Copy" fill-opacity="0" fill="#D8D8D8" x="0" y="0" width="132" height="38"></rect>
            <path d="M100.230095,15.528072 C101.033963,15.7043086 100.46168,16.4793946 100.840419,16.8850935 C100.88001,16.4305452 100.91185,16.0651796 100.945836,15.6749753 C100.708886,15.6263624 100.46955,15.5772763 100.230095,15.528072 Z M53.1364327,19.843857 C52.2538603,19.9190828 51.4006235,19.9532656 50.559431,20.0716634 C49.0086985,20.2898892 47.5319012,20.723029 46.3595503,21.8334376 C44.0980852,23.9757172 44.8878807,27.8535129 47.8148825,28.7814161 C49.7057172,29.380857 51.456552,28.9888785 52.9762794,27.6901688 C53.1155639,27.5712978 53.2574719,27.4553839 53.561322,27.2021473 C53.432293,28.5047602 53.9635537,29.0777065 55.0913049,29.0138355 C55.5611516,28.9872226 56.0346951,28.9059645 56.4879659,28.7821258 C56.6168756,28.7468785 56.7625997,28.4740075 56.7608109,28.3116097 C56.7348143,25.8698462 56.6908109,23.4283194 56.6376252,20.9869108 C56.6243884,20.3784806 56.5951721,19.7670935 56.5190903,19.1637495 C56.2468416,17.0025452 54.8978807,15.5249968 52.7369438,15.0823946 C50.7409302,14.6735022 48.7903509,14.915857 46.9072675,15.672728 C45.9802147,16.0454269 45.8207768,16.4312548 46.1670801,17.3538355 C46.2287325,17.5183624 46.3272334,17.6698785 46.4142862,17.8243516 C46.6048484,18.1620398 46.8081704,18.2733409 47.2212538,18.0609108 C48.4093458,17.4495237 49.6923612,17.2226634 51.0271312,17.349814 C52.4564668,17.4859538 53.2704702,18.4421258 53.1364327,19.843857 Z M93.8005894,19.8748462 C93.2358194,19.9014591 92.70277,19.9067817 92.1737751,19.9550398 C90.459431,20.1111688 88.7917138,20.4324161 87.3834855,21.507814 C85.2604702,23.1289538 85.1514753,26.3929968 87.1521397,28.0700828 C88.8491925,29.4925129 91.8700443,29.3197065 93.6114583,27.7047172 C93.7555128,27.5710613 93.9230596,27.4625989 94.1375911,27.2979538 C94.2013901,27.6385989 94.2904702,27.8698355 94.2780681,28.0955129 C94.2467053,28.6676312 94.5981363,28.901943 95.0667905,28.9164914 C95.7294651,28.9369538 96.396075,28.8698892 97.0592266,28.8176097 C97.3777445,28.7925344 97.4408279,28.5848355 97.4314072,28.2776634 C97.3721397,26.3299538 97.3404191,24.3814161 97.2920034,22.4332333 C97.2656491,21.3710828 97.2879489,20.3025452 97.1764497,19.2485559 C96.9402147,17.016857 95.5693118,15.5206204 93.3553083,15.074943 C91.3173186,14.6646312 89.3290562,14.9325344 87.4160409,15.7228785 C86.6306576,16.0473194 86.5247632,16.314986 86.7768586,17.1532333 C86.8441158,17.3766634 86.9506065,17.5899215 87.0531618,17.8010505 C87.2425315,18.1909 87.4818671,18.2600935 87.9032981,18.0460075 C89.0952061,17.4405344 90.37846,17.2181688 91.7123952,17.3544269 C93.1036899,17.4967172 93.8902658,18.4222548 93.8005894,19.8748462 Z M64.6727189,25.0549 C64.5407087,24.7652333 64.4835877,24.6649323 64.4478126,24.5576527 C63.5111005,21.7427172 62.5554276,18.9336957 61.6580681,16.1065774 C61.4568927,15.4727172 61.0966371,15.0871258 60.48846,15.0430075 C59.7706917,14.9910828 59.0253765,14.9960505 58.3235877,15.1340828 C57.6047462,15.2755452 57.5998569,15.4003301 57.8717479,16.070857 C59.4521738,19.9685237 61.0297376,23.8673731 62.6216116,27.7605452 C62.8019182,28.2016097 62.7791414,28.5780935 62.5501806,28.9932548 C61.8689029,30.2292763 60.8917649,31.1410935 59.6029063,31.7226742 C58.5439625,32.2005237 58.4898228,32.2783516 58.7639796,33.4335882 C58.8445928,33.7730505 59.0062964,34.0942978 59.1384259,34.4208677 C59.315632,34.8585022 59.6330767,35.0282333 60.075138,34.8214806 C60.8942692,34.4384914 61.7638433,34.1207925 62.5023612,33.6170398 C64.3018501,32.3892978 65.3363475,30.5478032 66.1433152,28.6096742 C67.2909813,25.852814 68.3323952,23.0521903 69.4035026,20.2643409 C70.0152572,18.6718247 70.5960068,17.0675989 71.2048995,15.4303731 C70.1436899,14.8025452 69.0740136,14.7396204 67.9890733,15.1746527 C67.7407939,15.2742441 67.4746269,15.5619 67.3986644,15.8164376 C66.5674889,18.6023946 65.7732811,21.3991151 64.966075,24.1920505 C64.8978637,24.4282548 64.8083066,24.6584269 64.6727189,25.0549 Z M34.4904361,21.7420075 C34.7879659,21.7420075 34.9849676,21.7530075 35.1801806,21.7401151 C36.4036899,21.6595667 37.6540307,21.7045129 38.8442692,21.4612118 C41.0668586,21.0069 42.8105383,19.8420828 43.499448,17.5568032 C44.6138433,13.8599753 42.7516286,10.7552548 38.9092606,10.1341688 C37.2423782,9.86472796 35.5088348,9.96242688 33.8058194,9.96763118 C32.9072675,9.97035161 32.0093118,10.1326312 31.0919182,10.224771 L31.0919182,10.9759645 C31.0919182,16.4945344 31.0919182,22.0131043 31.0919182,27.5317925 C31.0919182,28.8313301 31.3021567,29.0620935 32.648971,29.0659968 C33.1152402,29.0674161 33.5824634,28.9334054 34.0481363,28.8553409 C34.4091073,28.7947817 34.5008109,28.5718247 34.4979489,28.2215989 C34.4825656,26.2902118 34.4905554,24.3587065 34.4904361,22.4272011 C34.4904361,22.2145344 34.4904361,22.001986 34.4904361,21.7420075 Z M41.3259898,7.94788925 C42.4897547,8.56542688 43.4371993,9.18603978 44.5673356,8.40480323 C44.7084089,8.30734086 44.899448,8.2810828 45.0671141,8.22123333 C50.8096184,6.16825484 56.7654617,5.18606129 62.8322078,4.83678172 C69.8269608,4.43403978 76.7639966,4.90431935 83.6047973,6.47105054 C88.0124123,7.48044839 92.2599932,8.91529785 96.1495843,11.2637387 C96.4527189,11.4468355 96.7528722,11.5369645 96.9837411,11.1985667 C97.2167564,10.8572118 97.0067564,10.5926204 96.7322419,10.3992333 C95.4716457,9.51119032 94.2656661,8.52497527 92.9268416,7.77200753 C86.9415434,4.40588925 80.3774037,2.97896452 73.6099421,2.34439462 C68.7701635,1.89055591 63.9274037,1.96519032 59.0963305,2.55611505 C54.1692606,3.15874946 49.3757513,4.2695129 44.812753,6.24395376 C43.6759387,6.73587849 42.5838433,7.32952366 41.3259898,7.94788925 Z M84.0630767,15.3363409 C83.86846,15.295771 83.6738433,15.2203086 83.4791073,15.2198355 C80.7115434,15.2121473 77.9439796,15.2121473 75.1764157,15.2165237 C74.5658535,15.2174699 73.9552913,15.2421903 73.3447291,15.2559108 C72.9255639,15.9469 73.0305043,16.6875667 73.1371141,17.4276419 C73.1897036,17.7926527 73.369891,17.9397925 73.7755809,17.9342333 C75.5638603,17.9096312 77.3528552,17.9224054 79.1414923,17.9251258 C79.3439796,17.9253624 79.5464668,17.9471258 79.8346951,17.9639215 C79.7148484,18.1412226 79.667983,18.2233086 79.6090733,18.2956957 C77.564644,20.8091366 75.5673186,23.3625559 73.4483578,25.8125989 C72.6671482,26.7159 72.7155639,27.6354054 72.7677956,28.6271796 C72.8404191,28.6649108 72.8744055,28.6977925 72.9083918,28.6979108 C76.5845247,28.7052441 80.2607768,28.7143516 83.937029,28.6992118 C84.0812027,28.6986204 84.3356831,28.4756634 84.3488007,28.3384591 C84.4060409,27.7377172 84.4147462,27.1297602 84.3982896,26.5255882 C84.3876763,26.1340828 84.1725486,25.9755882 83.7357342,25.9816204 C81.788494,26.0085882 79.8405383,25.9942763 77.8928211,25.9921473 C77.6866371,25.9919108 77.4805724,25.9741688 77.2022419,25.9612763 C77.296569,25.7857495 77.3344906,25.6778785 77.4023441,25.5937817 C79.5487325,22.9341473 81.6995332,20.2780613 83.8427019,17.615943 C83.9600443,17.469986 84.0843032,17.2784914 84.089908,17.1045022 C84.1089881,16.515943 84.076075,15.9258462 84.0630767,15.3363409 Z" id="Fill-1" fill="#FDFDFD"></path>
            <path d="M41.3259898,7.94787742 C42.5838433,7.32963011 43.6759387,6.73586667 44.812753,6.24394194 C49.3757513,4.26961935 54.1692606,3.15885591 59.0963305,2.55610323 C63.9274037,1.96517849 68.7701635,1.89066237 73.6099421,2.3443828 C80.3774037,2.97895269 86.9415434,4.40587742 92.9268416,7.7719957 C94.2656661,8.52496344 95.4716457,9.51117849 96.7322419,10.3992215 C97.0067564,10.5926086 97.2167564,10.8572 96.9837411,11.1985548 C96.7528722,11.5369527 96.4527189,11.4468237 96.1495843,11.2637269 C92.2599932,8.91528602 88.0124123,7.48043656 83.6047973,6.47103871 C76.7639966,4.90430753 69.8269608,4.43402796 62.8322078,4.83676989 C56.7654617,5.18604946 50.8096184,6.16824301 45.0671141,8.22122151 C44.899448,8.28118925 44.7084089,8.30732903 44.5673356,8.40490968 C43.4371993,9.18602796 42.4897547,8.56553333 41.3259898,7.94787742" id="Fill-3" fill="#2CB057"></path>
            <path d="M34.5688075,12.6298677 C34.5338671,12.7309968 34.4983305,12.7858785 34.4982112,12.8409968 C34.4932027,14.7701366 34.4840204,16.6993946 34.5054855,18.6282978 C34.5069165,18.7639645 34.720971,18.9905882 34.8650256,19.0164914 C35.9940886,19.2194591 37.1208859,19.1745129 38.2060647,18.7853731 C39.612385,18.281029 40.3381431,17.1739323 40.3206133,15.638072 C40.3041567,14.1961258 39.614293,13.1912226 38.3095741,12.7569 C37.0713969,12.3446957 35.8149744,12.4436957 34.5688075,12.6298677 M34.49046,21.7420075 C34.49046,22.001986 34.49046,22.2145344 34.49046,22.4272011 C34.49046,24.3587065 34.4825894,26.2902118 34.4979727,28.2215989 C34.5008348,28.5718247 34.4091312,28.7947817 34.0481601,28.8553409 C33.582368,28.9334054 33.1152641,29.0674161 32.6489949,29.0659968 C31.3021806,29.0620935 31.0919421,28.8313301 31.0919421,27.5317925 C31.0919421,22.0131043 31.0919421,16.4945344 31.0919421,10.9759645 L31.0919421,10.224771 C32.0092164,10.1326312 32.9072913,9.97035161 33.8058433,9.96763118 C35.5088586,9.96242688 37.242402,9.86472796 38.9091652,10.1341688 C42.7516525,10.7552548 44.6138671,13.8599753 43.4994719,17.5568032 C42.8105622,19.8420828 41.0668825,21.0069 38.844293,21.4612118 C37.6540545,21.7045129 36.4037138,21.6595667 35.1802044,21.7401151 C34.9848722,21.7530075 34.7879898,21.7420075 34.49046,21.7420075" id="Fill-5" fill="#313F49"></path>
            <path d="M64.6727189,25.0548882 C64.8083066,24.6584151 64.8978637,24.428243 64.966075,24.1920387 C65.7732811,21.3991032 66.5674889,18.6023828 67.3986644,15.8164258 C67.4746269,15.5618882 67.7407939,15.2742323 67.9890733,15.1746409 C69.0740136,14.7396086 70.1436899,14.8026516 71.2048995,15.4303613 C70.5960068,17.0675871 70.0152572,18.6718129 69.4035026,20.264329 C68.3323952,23.0521785 67.2909813,25.8528022 66.1433152,28.6096624 C65.3363475,30.5477914 64.3018501,32.389286 62.5023612,33.617028 C61.7638433,34.1207806 60.8942692,34.4384796 60.075138,34.8215871 C59.6330767,35.0282215 59.315632,34.8586086 59.1384259,34.4208559 C59.0062964,34.094286 58.8445928,33.7730387 58.7639796,33.4335763 C58.4898228,32.2783398 58.5439625,32.2006301 59.6029063,31.7226624 C60.8917649,31.1410817 61.8689029,30.2292645 62.5501806,28.9933613 C62.7791414,28.5780817 62.8019182,28.2015978 62.6216116,27.7605333 C61.0297376,23.8673613 59.4521738,19.9685118 57.8717479,16.0708452 C57.5998569,15.4003183 57.6047462,15.2755333 58.3235877,15.1341892 C59.0253765,14.9960387 59.7706917,14.991071 60.48846,15.043114 C61.0966371,15.087114 61.4568927,15.4727054 61.6580681,16.1065656 C62.5554276,18.9338022 63.5111005,21.7427054 64.4478126,24.5576409 C64.4835877,24.6650387 64.5407087,24.7652215 64.6727189,25.0548882" id="Fill-7" fill="#324049"></path>
            <path d="M93.8831227,22.1108269 C93.5972794,22.1108269 93.340891,22.0945043 93.0872453,22.1136656 C91.9969387,22.1959882 90.9043663,22.2819774 89.978029,22.9566441 C89.2081482,23.5172892 89.0662402,24.3113 89.2117257,25.1727301 C89.3357462,25.9067731 89.8282504,26.3413323 90.5405332,26.5260849 C92.0114872,26.9074183 93.6769387,25.852128 93.8675009,24.358257 C93.9583697,23.645386 93.8831227,22.9115796 93.8831227,22.1108269 M93.8006014,19.8748699 C93.8901584,18.4222785 93.1037019,17.4967409 91.7124072,17.3544505 C90.3784719,17.2181925 89.0952181,17.4405581 87.9033101,18.0460312 C87.481879,18.2601172 87.2425434,18.1908054 87.0531738,17.8010742 C86.9506184,17.5898269 86.8441278,17.3766871 86.7768705,17.153257 C86.5246559,16.3150097 86.6306695,16.047343 87.4160528,15.7229022 C89.3290681,14.9324398 91.3173305,14.6646548 93.3553203,15.0749667 C95.5693237,15.5206441 96.9402266,17.0168806 97.1764617,19.2485796 C97.2879608,20.3025688 97.265661,21.3709882 97.2920153,22.433257 C97.340431,24.3814398 97.3721516,26.3299774 97.4314191,28.2776871 C97.4408399,28.5848591 97.3777564,28.7925581 97.0592385,28.8176333 C96.3960869,28.8697946 95.729477,28.9369774 95.0668024,28.9163968 C94.5981482,28.9019667 94.2467172,28.6676548 94.2780801,28.0955366 C94.2904821,27.8698591 94.201402,27.6386226 94.1376031,27.2979774 C93.9230716,27.4626226 93.7555247,27.5710849 93.6114702,27.7046226 C91.869937,29.3197301 88.8492044,29.4924183 87.1521516,28.0699882 C85.1514872,26.3930204 85.2604821,23.1289774 87.3834974,21.5078376 C88.7917257,20.4324398 90.4594429,20.1111925 92.1736678,19.9550634 C92.7027819,19.9068054 93.2358313,19.9014828 93.8006014,19.8748699" id="Fill-9" fill="#324049"></path>
            <path d="M53.2800579,22.0981355 C51.8879284,22.1304258 50.5621022,22.1366946 49.4020341,22.910243 C48.6247598,23.4284258 48.402954,24.1978344 48.539615,25.0762968 C48.6562419,25.825243 49.1056968,26.3048667 49.8468382,26.5124473 C51.413431,26.9511462 53.173925,25.7420925 53.2734991,24.1319527 C53.3133288,23.4878022 53.2800579,22.839157 53.2800579,22.0981355 M53.1364804,19.8439634 C53.2705179,18.442114 52.4565145,17.4859419 51.0270596,17.3498022 C49.6924089,17.2226516 48.4093935,17.4495118 47.2211823,18.0608989 C46.8082181,18.273329 46.6047768,18.162028 46.4143339,17.8243398 C46.3271618,17.6698667 46.2287802,17.5183505 46.1670085,17.3538237 C45.8207053,16.431243 45.9802624,16.0454151 46.9073152,15.6727161 C48.7902794,14.9158452 50.7408586,14.6734903 52.7369915,15.0823828 C54.8979284,15.5249849 56.24677,17.0025333 56.519138,19.1637376 C56.5951005,19.7670817 56.6243169,20.3784688 56.6375537,20.9868989 C56.6907394,23.4283075 56.7347428,25.8698344 56.7608586,28.3115978 C56.7625281,28.4739957 56.6168041,28.7469849 56.4880136,28.782114 C56.0347428,28.9059527 55.5611993,28.9872108 55.0912334,29.0138237 C53.9636014,29.0776946 53.4323407,28.5048667 53.5612504,27.2021355 C53.2574003,27.4554903 53.1154923,27.571286 52.9763271,27.690157 C51.4564804,28.9889849 49.7056457,29.3808452 47.8149302,28.7814043 C44.8879284,27.8535011 44.0980136,23.9757054 46.359598,21.8334258 C47.5318296,20.7230172 49.0087462,20.2898774 50.5594787,20.0716516 C51.4006712,19.9532538 52.2537888,19.919071 53.1364804,19.8439634" id="Fill-11" fill="#324049"></path>
            <path d="M84.0630647,15.3363172 C84.076063,15.9258226 84.1089761,16.5159194 84.0898961,17.1044785 C84.0842913,17.2784677 83.9600324,17.4700806 83.8426899,17.6159194 C81.6995213,20.2780376 79.5487206,22.9341237 77.4023322,25.5937581 C77.3344787,25.6778548 77.2965571,25.7857258 77.2023492,25.9612527 C77.4805605,25.9741452 77.6866252,25.9918871 77.8928092,25.9921237 C79.8405264,25.9942527 81.7884821,26.0085645 83.7358416,25.9815968 C84.1725366,25.9755645 84.3876644,26.1340591 84.3982777,26.5255645 C84.4147342,27.1297366 84.406029,27.7376935 84.3487888,28.3384355 C84.3356712,28.4756398 84.0811908,28.6985968 83.937017,28.6991882 C80.2607649,28.714328 76.5845128,28.7052204 72.9083799,28.6978871 C72.8743935,28.6977688 72.8404072,28.6648871 72.7677836,28.6271559 C72.715552,27.6353817 72.6671363,26.7159946 73.4483458,25.8125753 C75.5673066,23.3625323 77.564632,20.8091129 79.6090613,18.2957903 C79.667971,18.2232849 79.7148365,18.1411989 79.8346831,17.9638978 C79.5464549,17.9471022 79.3439676,17.9253387 79.1414804,17.9251022 C77.3528433,17.9223817 75.5638484,17.9096075 73.775569,17.9342097 C73.369879,17.9397688 73.1896917,17.792629 73.1371022,17.4276183 C73.0304923,16.687543 72.925552,15.9468763 73.3447172,15.2560054 C73.5356371,15.2830914 73.7265571,15.3337151 73.9175963,15.3340699 C77.2994191,15.3384462 80.6812419,15.336672 84.0630647,15.3363172" id="Fill-13" fill="#313F49"></path>
            <path d="M34.5688075,12.6298677 C35.8149744,12.4436957 37.0713969,12.3446957 38.3095741,12.7569 C39.614293,13.1912226 40.3041567,14.1961258 40.3206133,15.638072 C40.3381431,17.1739323 39.612385,18.281029 38.2060647,18.7853731 C37.1208859,19.1745129 35.9940886,19.2194591 34.8650256,19.0164914 C34.720971,18.9905882 34.5069165,18.7639645 34.5054855,18.6282978 C34.4840204,16.6993946 34.4932027,14.7701366 34.4982112,12.8409968 C34.4983305,12.7858785 34.5338671,12.7309968 34.5688075,12.6298677" id="Fill-19" fill="#F8F8F8"></path>
            <path d="M93.8831227,22.1108269 C93.8831227,22.9115796 93.9583697,23.645386 93.8675009,24.358257 C93.6769387,25.852128 92.0114872,26.9074183 90.5405332,26.5260849 C89.8282504,26.3413323 89.3357462,25.9067731 89.2117257,25.1727301 C89.0662402,24.3113 89.2081482,23.5172892 89.978029,22.9566441 C90.9043663,22.2819774 91.9969387,22.1959882 93.0872453,22.1136656 C93.340891,22.0945043 93.5972794,22.1108269 93.8831227,22.1108269" id="Fill-21" fill="#F7F7F7"></path>
            <path d="M53.2800579,22.0981355 C53.2800579,22.839157 53.3133288,23.4878022 53.2734991,24.1319527 C53.173925,25.7420925 51.413431,26.9511462 49.8468382,26.5124473 C49.1056968,26.3048667 48.6562419,25.825243 48.539615,25.0762968 C48.402954,24.1978344 48.6247598,23.4284258 49.4020341,22.910243 C50.5621022,22.1366946 51.8879284,22.1304258 53.2800579,22.0981355" id="Fill-23" fill="#F8F7F7"></path>
        </g>
    </g>
</svg>