<?xml version="1.0" encoding="UTF-8"?>
<svg width="132px" height="38px" viewBox="0 0 132 38" version="1.1" xmlns="http://www.w3.org/2000/svg" xmlns:xlink="http://www.w3.org/1999/xlink">
    <!-- Generator: Sketch 48.1 (47250) - http://www.bohemiancoding.com/sketch -->
    <title>Slice Copy 5</title>
    <desc>Created with Sketch.</desc>
    <defs></defs>
    <g id="UI-kit" stroke="none" stroke-width="1" fill="none" fill-rule="evenodd">
        <g id="ic_payoneer">
            <rect id="Rectangle-11" fill-opacity="0" fill="#D8D8D8" x="0" y="0" width="132" height="38"></rect>
            <path d="M42.5066064,17.485948 C42.5726909,17.1378645 42.5186217,16.9158113 42.1161072,16.8577974 C41.1188323,16.7217648 40.1275651,16.4837077 39.1282877,16.4276943 C37.1717866,16.3176679 35.2853751,16.6617504 33.6392708,17.7840194 C31.0159173,19.5724482 29.9345349,22.1430644 30.0606961,25.2458082 C30.1187704,26.7221621 30.6975102,27.9764628 32.1073124,28.6246182 C33.5331351,29.2767745 34.9409348,29.0627232 36.1705066,28.1104949 C36.7632644,27.6523851 37.2298609,27.0382379 37.820616,26.4220902 C37.7805648,27.0382379 37.7585367,27.6243784 37.7044676,28.206518 C37.6684215,28.5706052 37.7925802,28.7106388 38.1670589,28.6966355 C38.8939882,28.6726297 39.6269251,28.6726297 40.3538544,28.6966355 C40.7483587,28.7106388 40.8384739,28.5666043 40.8645072,28.1825122 C40.9446096,26.930212 41.0046864,25.6699099 41.2089475,24.4336135 C41.5914365,22.1130572 42.0640406,19.8025033 42.5066064,17.485948 Z M37.0936868,24.8297085 C36.883418,25.1557866 36.6050621,25.4558586 36.3066807,25.7059185 C35.8160535,26.1280197 35.2373137,26.3080629 34.6004996,26.0540019 C33.9676907,25.799941 33.7393988,25.2258034 33.7013502,24.6196581 C33.5711838,22.6631891 34.2500516,21.0127934 35.7539742,19.7484904 C36.5529956,19.0763292 37.5042116,18.8582769 38.6416656,19.1743527 C38.2371485,21.1208193 38.2091127,23.1212989 37.0936868,24.8297085 Z M65.4359181,17.4079293 C64.2003386,16.4917096 62.7945415,16.3036645 61.2886164,16.4697043 C56.2581857,17.0278381 54.2035592,22.3411119 55.2729262,25.7439276 C55.9257608,27.8164244 57.6980263,28.9646997 60.8100045,28.9606988 C62.9527437,28.8986839 65.0714522,27.6863933 66.401152,25.1997972 C67.1100582,23.8734792 67.3643833,22.4311335 67.2762707,20.9327743 C67.1821504,19.4944294 66.6114208,18.2801383 65.4359181,17.4079293 Z M62.3059168,25.4178494 C61.9174202,25.9119679 61.4067674,26.2500489 60.7619431,26.3080629 C59.606466,26.4160888 58.7253396,25.6138964 58.6312193,24.3896029 C58.6172014,24.2095598 58.6292167,24.0235152 58.6292167,23.847473 C58.6672654,22.4991498 58.9956852,21.2368472 59.8107271,20.1385839 C60.175193,19.6484664 60.6297741,19.2663748 61.2365498,19.1303422 C62.4841447,18.8422731 63.5054503,19.5684472 63.6175936,20.9167704 C63.7577728,22.5611646 63.3512531,24.0955325 62.3059168,25.4178494 Z M90.3137206,16.6877566 C88.0848714,16.0235974 86.0282423,16.4897091 84.2760023,17.9800664 C82.1492836,19.7884999 81.3502622,22.183074 81.6506462,24.9117281 C81.8649201,26.8401904 82.9222718,28.2225218 84.850737,28.7186407 C86.9193815,29.2527688 88.9539824,28.9727016 90.9164912,28.1705093 C91.0486601,28.1184969 91.2088649,27.8864412 91.2068624,27.7484081 C91.1668112,27.0322365 91.0827037,26.3160648 91.0146166,25.6058945 C90.9285065,25.6058945 90.8924605,25.5978926 90.8664272,25.607895 C90.7402659,25.6499051 90.6161072,25.6999171 90.4899459,25.7439276 C89.3645072,26.1760312 88.1950122,26.3680772 86.9894711,26.2180413 C85.7418762,26.0660048 84.9168215,25.2017977 84.9989265,23.9835056 C85.7739172,23.9835056 86.5368925,24.0215147 87.2918576,23.9755037 C88.5014039,23.9054869 89.6889219,23.6994375 90.7883273,23.1553071 C92.1921219,22.4491378 92.8529667,21.2948611 92.7488336,19.7784975 C92.6366902,18.2401288 91.8036253,17.1298626 90.3137206,16.6877566 Z M88.8198109,21.0307978 C88.1109047,21.4048874 86.2605392,21.6269407 85.3493745,21.4368951 C85.5376151,19.8825225 87.1837194,18.654228 88.5855114,18.9943096 C89.0621206,19.1103374 89.3985507,19.3643983 89.4766506,19.8665186 C89.5547504,20.3566361 89.3084355,20.7767368 88.8198109,21.0307978 Z M114,16.4436981 C113.781721,17.5559647 113.58547,18.5842112 113.367191,19.6124577 C113.347165,19.6964779 113.194971,19.8045038 113.09284,19.8185071 C110.777881,20.12258 109.800632,20.9427767 109.221892,23.3113445 C108.819377,24.9597396 108.557042,26.6441434 108.216607,28.3045415 C108.188571,28.4385736 108.068417,28.6666283 107.986312,28.6686287 C106.898922,28.6926345 105.815537,28.6846326 104.66006,28.6846326 C104.814257,27.8164244 104.952434,27.026235 105.106631,26.2380461 C105.715409,23.1953166 106.346216,20.1565882 106.596536,17.0578453 C106.604546,16.9318151 106.780771,16.7137628 106.884904,16.7097619 C107.770036,16.6817552 108.669185,16.6937581 109.634419,16.6937581 C109.568335,17.527958 109.510261,18.3101455 109.440171,19.0903326 C110.521553,17.4959504 111.767146,16.2116425 114,16.4436981 Z M101.97663,16.6757537 C99.4213634,15.9715849 97.1845039,16.6537485 95.386205,18.5642064 C93.7080598,20.3426328 93.0912713,22.5191546 93.3836451,24.9217305 C93.6099343,26.8041818 94.6032041,28.1745103 96.4916182,28.690634 C98.5923036,29.2627712 100.652938,28.982704 102.645485,28.1645079 C102.781659,28.1104949 102.937859,27.8784393 102.933854,27.7384057 C102.895805,27.026235 102.809695,26.3080629 102.731595,25.5498811 C102.487283,25.6439036 102.301045,25.7139204 102.116809,25.7759353 C101.013399,26.1800322 99.8799496,26.3540739 98.7064495,26.2140403 C97.4508444,26.0620039 96.6217845,25.1777919 96.737933,24.0235152 C97.0863785,24.0235152 97.4147983,24.0315171 97.7432181,24.0235152 C99.3352533,23.9875066 100.919278,23.893484 102.39116,23.20932 C103.857034,22.525156 104.56594,21.3588764 104.47182,19.8145062 C104.373694,18.2321268 103.540629,17.1078573 101.97663,16.6757537 Z M100.586853,20.9867872 C100.156303,21.1788332 99.6877039,21.3188668 99.2171023,21.3808817 C98.5202114,21.4749042 97.8133077,21.4829061 97.0663529,21.5309176 C97.2225525,19.8885239 98.9467567,18.6182194 100.344544,19.000311 C100.79512,19.1243407 101.13155,19.3603973 101.197634,19.8485143 C101.267724,20.37264 101.05345,20.7887397 100.586853,20.9867872 Z M80.1947851,18.9242928 C80.3549899,20.3786414 80.0566084,21.786979 79.7842603,23.1933162 C79.4618481,24.8977248 79.1414385,26.5941314 78.7969982,28.2925386 C78.7629547,28.4385736 78.588732,28.6686287 78.4725835,28.6726297 C77.4632933,28.7006364 76.4520005,28.6806316 75.4427103,28.6726297 C75.3986539,28.6726297 75.3525951,28.6366211 75.2584748,28.5926105 C75.4427103,27.618377 75.634956,26.634141 75.8091787,25.6479046 C76.0755192,24.139543 76.3378546,22.6271804 76.5801643,21.1128174 C76.6222181,20.8547556 76.6041951,20.5826903 76.5721541,20.322628 C76.4700235,19.4244127 75.8131839,19.004312 74.9420703,19.2823786 C74.0929848,19.5524434 73.5883397,20.2045997 73.1738098,20.9327743 C72.5590239,21.9990299 72.3487551,23.1853142 72.1364838,24.3796006 C71.9101945,25.6719104 71.675895,26.9742226 71.4175647,28.2645319 C71.3895289,28.4165683 71.2092985,28.6546254 71.09315,28.6586263 C70.0518188,28.690634 69.0164953,28.6766307 67.8690284,28.6766307 C68.6119782,24.6416634 69.3369049,20.6887157 70.073847,16.70176 C71.0691193,16.70176 72.026343,16.70176 73.0556588,16.70176 C73.0075973,17.3339115 72.9575333,17.9420573 72.9094719,18.5722084 C73.2539122,18.2501312 73.5522937,17.9540602 73.8686981,17.6799945 C75.0281804,16.6697523 76.3618853,16.2216449 77.9018539,16.4737053 C79.1734795,16.6897571 80.0506008,17.6239811 80.1947851,18.9242928 Z M30.4992568,15.7235255 C30.2729675,14.1411461 28.9412651,12.7988243 27.0228127,12.3267112 C24.8260044,11.7845812 22.6231884,12.0086349 20.422375,12.3407145 C20.1320038,12.3847251 20.0498988,12.5787716 19.9978323,12.8588387 C19.1567571,17.3019038 18.2996614,21.740968 17.4525786,26.1820326 C17.2983814,26.9842249 17.1602048,27.7944192 17,28.6786311 C18.1254387,28.6786311 19.1787853,28.6866331 20.2301292,28.6606268 C20.3142368,28.6566259 20.4383955,28.4345726 20.4624262,28.2965395 C20.8028614,26.584129 21.1392915,24.8637166 21.4516908,23.1473051 C21.5117676,22.8152255 21.6179033,22.721203 21.9703539,22.7552111 C23.4642636,22.8892433 24.9341426,22.7872188 26.3759858,22.3071037 C29.119493,21.4048874 30.957843,18.8802822 30.4992568,15.7235255 Z M26.7905157,18.1120981 C26.247822,19.2703757 25.2605599,19.8205076 24.045006,19.9505388 C23.4182047,20.0185551 22.7773855,19.9645421 22.0584665,19.9645421 C22.3848838,18.2321268 22.6712498,16.6957585 22.9736364,15.1633912 C22.9976671,15.0493638 23.1398489,14.891326 23.243982,14.8753221 C24.0990751,14.7612948 24.9581733,14.6972794 25.7912383,14.9953509 C26.9647384,15.4074497 27.4093067,16.7997835 26.7905157,18.1120981 Z" id="Shape" fill="#252525" fill-rule="nonzero"></path>
            <path d="M55.3266497,17.1302197 C52.549642,19.9091336 49.9539168,22.8472976 47.6888826,26.054196 C46.2764734,28.0488033 44.9576935,30.1170637 43.696685,32.2131929 C43.0651847,33.2582715 42.6587934,34.4407034 42.1428357,35.5594352 C42.0631511,35.7286384 41.8818687,36.0152885 41.8221053,35.9993635 C41.5989884,35.9296916 41.2802501,35.7963197 41.2204867,35.6251258 C41.0810387,35.1871881 40.9415906,34.6895316 41.0252595,34.2575658 C41.4734852,31.9066365 42.4456371,29.7448166 43.5353238,27.6447062 C45.6509494,23.5619323 48.2984696,19.8394617 51.3902314,16.4494256 C53.1512606,14.520509 54.9780297,12.6493206 56.8585858,10.8418322 C59.6873884,8.12263707 62.8349294,5.82346405 66.3510115,4.04384441 C67.9686085,3.2237065 69.6579217,2.60860306 71.4508247,2.2741779 C71.7476498,2.21844037 72.046467,2.14677783 72.3393078,2.08108717 C72.3393078,2.08108717 76.0267118,1.37441495 77.6343483,4.13342258 C77.6343483,4.13342258 78.0746056,4.80426354 77.9889447,5.02721365 C77.8873468,5.28599503 77.4630264,5.53482328 77.1522565,5.57861705 C74.2059191,6.01655477 71.3472348,6.78294578 68.6040931,7.91362134 C67.0084093,8.56654667 65.4665127,9.35682519 63.9465293,10.1709912 C60.6356349,11.9426484 57.9502645,14.5025934 55.3266497,17.1302197 Z M43.2384987,5.64828896 C43.1847116,5.34173255 43.156822,5.02920427 43.1309245,4.72065724 C43.1010428,4.36831644 43.3042385,4.19314136 43.6130162,4.30461641 C43.9118334,4.41410084 44.2245954,4.58330405 44.4397438,4.81421667 C46.2963945,6.78095515 47.4637736,9.08809068 47.782512,11.795342 C47.8442675,12.316886 47.8721571,12.8424113 47.9159836,13.3659459 C47.8821177,14.994278 47.5932611,16.5708538 47.035469,18.0976639 C46.9776977,18.2608953 46.8581708,18.406211 46.7486045,18.5475454 C46.4896296,18.8879425 46.2107336,18.9178018 46.0174985,18.5455548 C45.7625078,18.0578514 45.5473594,17.5323262 45.4238483,16.9988384 C45.0473387,15.3506001 44.7007108,13.6943992 44.3839646,12.0342172 C43.9795653,9.90822859 43.6150083,7.77825877 43.2384987,5.64828896 Z" id="Combined-Shape" fill="#FF4800"></path>
        </g>
    </g>
</svg>