<?xml version="1.0" encoding="UTF-8"?>
<svg width="132px" height="38px" viewBox="0 0 132 38" version="1.1" xmlns="http://www.w3.org/2000/svg" xmlns:xlink="http://www.w3.org/1999/xlink">
    <!-- Generator: Sketch 48.1 (47250) - http://www.bohemiancoding.com/sketch -->
    <title>Slice</title>
    <desc>Created with Sketch.</desc>
    <defs></defs>
    <g id="UI-kit" stroke="none" stroke-width="1" fill="none" fill-rule="evenodd">
        <g id="ic_skrill" transform="translate(-1.000000, 0.000000)">
            <rect id="Rectangle-11-Copy" fill-opacity="0" fill="#D8D8D8" x="0" y="0" width="132" height="38"></rect>
            <path d="M89.3650278,31.1289444 C89.3650278,29.6177222 88.6503611,28.4210278 87.0535278,28.4210278 C85.6335,28.4210278 84.5894167,29.4595278 84.5894167,31.1643056 C84.5894167,33.0291389 85.7098056,33.8591944 87.2787222,33.8591944 C88.0938889,33.8591944 88.7899444,33.6358611 89.352,33.2729444 L89.1919444,32.1469722 C88.615,32.47825 88.0566667,32.6885556 87.476,32.6885556 C86.7743611,32.6885556 86.2811667,32.3684444 86.1955556,31.5514167 L89.3371111,31.5514167 C89.3538611,31.4639444 89.3650278,31.289 89.3650278,31.1289444 Z M86.1881111,30.6636667 C86.2402222,29.8615278 86.5603333,29.4651111 87.007,29.4651111 C87.5001944,29.4651111 87.7737778,29.8745556 87.8258889,30.6636667 L86.1881111,30.6636667 Z M82.7673889,30.9074722 L84.47775,33.5911944 L82.80275,33.8294167 L81.2878056,31.3225 L81.2878056,33.7531111 L79.6816667,33.7531111 L79.6816667,26.3123889 L81.2840833,26.0555556 L81.2840833,30.66925 L82.6799167,28.5289722 L84.4144722,28.5289722 L82.7673889,30.9074722 Z M98.2778889,32.14325 C98.2778889,33.2431667 97.5204167,33.8405833 96.13575,33.8405833 C95.3038333,33.8405833 94.5258889,33.6042222 93.9805833,33.3194722 L94.1741389,32.0911389 C94.7920278,32.4763889 95.5495,32.71275 96.1506389,32.71275 C96.5935833,32.71275 96.8094722,32.5638611 96.8094722,32.3163333 C96.8094722,32.0483333 96.6605833,31.9348056 95.9198611,31.7505556 C94.6115,31.4099722 94.0550278,31.0600833 94.0550278,30.0811389 C94.0550278,29.1115 94.779,28.4601111 96.0557222,28.4601111 C96.7610833,28.4601111 97.4441111,28.5978333 97.9856944,28.8453611 L97.7884167,30.0699722 C97.2189167,29.7610278 96.57125,29.5767778 96.0668889,29.5767778 C95.6872222,29.5767778 95.5141389,29.7126389 95.5141389,29.9210833 C95.5141389,30.13325 95.6630278,30.2523611 96.4000278,30.4552222 C97.7884167,30.82 98.2778889,31.1736111 98.2778889,32.14325 Z M93.3310556,28.42475 L93.6009167,30.06625 C92.81925,30.1183611 92.2385833,30.4273056 91.8384444,30.8553611 L91.8384444,33.7568333 L90.2285833,33.7568333 L90.2285833,28.5326944 L91.6393056,28.5326944 L91.8105278,29.5656111 C92.1287778,28.9663333 92.5642778,28.4805833 93.3310556,28.42475 Z M76.3093333,28.42475 C74.8744167,28.42475 73.8042778,29.4762778 73.8042778,31.1531389 C73.8042778,32.83 74.8558056,33.8591944 76.2981667,33.8591944 C77.7479722,33.8591944 78.8236944,32.81325 78.8236944,31.1401111 C78.8236944,29.4688333 77.7591389,28.42475 76.3093333,28.42475 Z M76.3093333,32.562 C75.7026111,32.562 75.3601667,31.9813333 75.3601667,31.1419722 C75.3601667,30.2877222 75.6914444,29.7461389 76.3093333,29.7461389 C76.9272222,29.7461389 77.2733889,30.3119167 77.2733889,31.155 C77.2715278,31.9980833 76.9272222,32.562 76.3093333,32.562 Z M56.50525,31.1289444 C56.50525,29.6177222 55.7924444,28.4210278 54.19375,28.4210278 C52.7755833,28.4210278 51.7296389,29.4595278 51.7296389,31.1643056 C51.7296389,33.0291389 52.8500278,33.8591944 54.4152222,33.8591944 C55.2359722,33.8591944 55.9301667,33.6358611 56.4940833,33.2729444 L56.3340278,32.1469722 C55.7589444,32.47825 55.1931667,32.6885556 54.6180833,32.6885556 C53.9127222,32.6885556 53.4251111,32.3684444 53.3376389,31.5514167 L56.4754722,31.5514167 C56.4940833,31.4639444 56.50525,31.289 56.50525,31.1289444 Z M53.3283333,30.6636667 C53.3823056,29.8615278 53.7024167,29.4651111 54.1490833,29.4651111 C54.6404167,29.4651111 54.9158611,29.8745556 54.9698333,30.6636667 L53.3283333,30.6636667 Z M60.4787222,28.5308333 L62.0383333,28.5308333 L60.1809444,33.8573333 C59.7119444,35.2233889 59.0717222,35.6923889 57.9308611,35.6923889 C57.61075,35.6923889 57.4730278,35.6570278 57.3241389,35.62725 L57.1212778,34.3393611 C57.2925,34.3914722 57.4525556,34.4268333 57.7652222,34.4268333 C58.1244167,34.4268333 58.4445278,34.2891111 58.61575,33.9224722 L58.6808889,33.7624167 L56.7825556,28.6555278 L58.5096667,28.4545278 L59.52025,31.7505556 L60.4787222,28.5308333 Z M42.8912222,28.42475 C41.4525833,28.42475 40.3861667,29.4762778 40.3861667,31.1531389 C40.3861667,32.83 41.4432778,33.8591944 42.8800556,33.8591944 C44.3298611,33.8591944 45.4093056,32.81325 45.4093056,31.1401111 C45.4093056,29.4688333 44.3428889,28.42475 42.8912222,28.42475 Z M42.8912222,32.562 C42.2845,32.562 41.9420556,31.9813333 41.9420556,31.1419722 C41.9420556,30.2877222 42.2733333,29.7461389 42.8912222,29.7461389 C43.5128333,29.7461389 43.8515556,30.3119167 43.8515556,31.155 C43.8515556,31.9980833 43.5128333,32.562 42.8912222,32.562 Z M39.5691389,30.0420556 L39.5691389,33.7531111 L37.9481111,33.7531111 L37.9481111,30.4794167 C37.9481111,30.1071944 37.8103889,29.8503611 37.4363056,29.8503611 C37.1496944,29.8503611 36.8723889,30.0346111 36.5857778,30.3081944 L36.5857778,33.7568333 L34.9759167,33.7568333 L34.9759167,30.4794167 C34.9759167,30.1071944 34.8381944,29.8540833 34.4641111,29.8540833 C34.1663333,29.8540833 33.8964722,30.0346111 33.6098611,30.3119167 L33.6098611,33.7568333 L32,33.7568333 L32,28.5308333 L33.4181667,28.5308333 L33.5372778,29.2436389 C34.0062778,28.7634722 34.4864444,28.4266111 35.1583056,28.4266111 C35.8711111,28.4266111 36.2675278,28.7765 36.4555,29.2436389 C36.9245,28.7746389 37.4363056,28.4266111 38.0876944,28.4266111 C39.0573333,28.42475 39.5691389,29.0333333 39.5691389,30.0420556 Z M50.91075,30.0420556 L50.91075,33.7531111 L49.2897222,33.7531111 L49.2897222,30.4794167 C49.2897222,30.1071944 49.1408333,29.8503611 48.7555833,29.8503611 C48.4466389,29.8503611 48.1600278,30.0346111 47.8715556,30.3193611 L47.8715556,33.7531111 L46.2616944,33.7531111 L46.2616944,28.5308333 L47.6798611,28.5308333 L47.7971111,29.2436389 C48.2661111,28.7895278 48.76675,28.4266111 49.4293056,28.4266111 C50.3989444,28.42475 50.91075,29.0333333 50.91075,30.0420556 Z M65.6805278,28.42475 C65.0626389,28.42475 64.6159722,28.7653333 64.2846944,29.1040556 L64.2846944,26.0555556 L62.6748333,26.3123889 L62.6748333,33.4441667 C63.2815556,33.6805278 64.0743889,33.8163889 64.91375,33.8163889 C66.5236111,33.8163889 67.5583889,32.9435278 67.5583889,31.0023889 C67.5583889,29.2324722 66.7488056,28.42475 65.6805278,28.42475 Z M64.8690833,32.5285 C64.6252778,32.5285 64.4987222,32.4931389 64.2846944,32.428 L64.2846944,30.3621667 C64.5508333,30.06625 64.83,29.8615278 65.1724444,29.8615278 C65.6302778,29.8615278 65.9503889,30.2318889 65.9503889,31.1084722 C65.9485278,32.14325 65.4981389,32.5285 64.8690833,32.5285 Z M70.6925,28.42475 C69.2538611,28.42475 68.1818611,29.4762778 68.1818611,31.1531389 C68.1818611,32.83 69.2389722,33.8591944 70.6813333,33.8591944 C72.1292778,33.8591944 73.205,32.81325 73.205,31.1401111 C73.2087222,29.4688333 72.1385833,28.42475 70.6925,28.42475 Z M70.6925,32.562 C70.0820556,32.562 69.7433333,31.9813333 69.7433333,31.1419722 C69.7433333,30.2877222 70.0746111,29.7461389 70.6925,29.7461389 C71.3103889,29.7461389 71.6528333,30.3119167 71.6528333,31.155 C71.6528333,31.9980833 71.3103889,32.562 70.6925,32.562 Z" id="Shape" fill="#000000" fill-rule="nonzero"></path>
            <path d="M84.7643611,2.22588889 L90.2881389,1.23763889 L90.2881389,22.4356944 L84.7643611,22.4356944 L84.7643611,2.22588889 Z M98.3523333,22.4338333 L92.8248333,22.4338333 L92.8248333,2.22588889 L98.3523333,1.23763889 L98.3523333,22.4338333 Z M71.6602778,22.4338333 L66.0936944,22.4338333 L66.0936944,13.7089444 C66.0936944,9.15480556 68.6862222,6.86563889 73.7893889,6.7 C73.7893889,6.7 74.7087778,6.66463889 75.2540833,6.78002778 L75.2540833,11.3118333 C72.0194722,11.4235 71.6602778,12.5922778 71.6602778,15.3169444 L71.6602778,22.4338333 Z M55.6565833,22.4338333 L49.956,22.4338333 L49.956,2.36361111 L55.6565833,1.23763889 L55.6565833,12.3093889 C57.7968611,9.72058333 58.6808889,7.22111111 58.8037222,6.91216667 L65.3213333,6.91216667 C65.1352222,7.50586111 63.9720278,11.0885 61.3199444,14.4496667 C61.3199444,14.4496667 64.2753889,19.6291389 64.9509722,22.4356944 L58.1244167,22.4356944 C58.1244167,22.4356944 57.3073889,18.7060278 55.6565833,16.2326111 L55.6565833,22.4338333 Z M76.9421111,2.72280556 C76.9421111,1.21902778 78.1574167,0 79.6611944,0 C81.1668333,0 82.384,1.21902778 82.384,2.72280556 C82.384,4.22658333 81.1668333,5.44375 79.6611944,5.44375 C78.1592778,5.44375 76.9421111,4.22472222 76.9421111,2.72280556 Z M82.4249444,22.4338333 L76.9030278,22.4338333 L76.9030278,6.92891667 L82.4249444,6.92891667 L82.4249444,22.4338333 Z M48.5676111,15.82875 C48.5676111,19.229 45.8410833,22.6590278 39.7533889,22.6590278 C36.9319444,22.6590278 34.5255278,22.3835833 32.3889722,21.8196667 L32.3889722,16.8691111 C33.8145833,17.4516389 36.1651667,18.0713889 38.5864722,18.0713889 C40.79375,18.0713889 42.1095556,17.3381111 42.1095556,16.09675 C42.1095556,14.5929722 40.5034167,14.5017778 39.8985556,14.4645556 C32.7667778,13.9788056 32,9.76152778 32,7.97113889 C32,4.86494444 34.2072778,1.23763889 40.4326944,1.23763889 C44.0413889,1.23763889 45.9899722,1.80155556 47.6668333,2.38780556 L47.7543056,2.41386111 L47.7543056,7.15783333 L47.7543056,7.22111111 L47.6928889,7.20436111 C47.0173056,6.91775 46.2244722,6.63858333 46.2244722,6.63858333 C44.8063056,6.21238889 42.8186389,5.76013889 41.2850833,5.76013889 C40.4122222,5.76013889 38.0858333,5.76013889 38.0858333,7.51516667 C38.0858333,8.97055556 39.6994167,9.07477778 40.3973333,9.12130556 C45.51725,9.46561111 48.5676111,11.9725278 48.5676111,15.82875 Z" id="Shape-Copy" fill="#862165" fill-rule="nonzero"></path>
        </g>
    </g>
</svg>