<?xml version="1.0" encoding="UTF-8"?>
<svg width="132px" height="38px" viewBox="0 0 132 38" version="1.1" xmlns="http://www.w3.org/2000/svg" xmlns:xlink="http://www.w3.org/1999/xlink">
    <!-- Generator: Sketch 48.1 (47250) - http://www.bohemiancoding.com/sketch -->
    <title>Slice Copy</title>
    <desc>Created with Sketch.</desc>
    <defs>
        <polygon id="path-1" points="0.0662790698 0.0452708738 0.0662790698 11.9613146 13.851676 11.9613146 13.851676 0.0452708738"></polygon>
    </defs>
    <g id="UI-kit" stroke="none" stroke-width="1" fill="none" fill-rule="evenodd">
        <g id="ic_webmoney" transform="translate(-1.000000, 0.000000)">
            <rect id="Rectangle-11-Copy" fill-opacity="0" fill="#D8D8D8" x="0" y="0" width="132" height="38"></rect>
            <path d="M109.617195,6.00512476 C111.685182,6.00512476 113.652716,6.47358786 115.418297,7.31158398 C115.695198,7.43510243 115.973902,7.58293398 116.249888,7.7308966 L115.039261,8.79121019 L113.224354,6.94218204 L110.097069,9.65378155 L108.255492,7.70594126 L102.504881,12.7599874 L106.186604,16.7291447 L104.749303,17.961485 L108.3817,21.9306422 L106.944267,23.1624714 L112.140188,28.8081189 L115.21543,26.0468578 L117.890149,29.0059922 C117.360049,29.4004806 116.779974,29.7957291 116.150191,30.1402937 C114.233016,31.2002272 112.013184,31.8153816 109.642673,31.8153816 C102.353009,31.8153816 96.4268651,26.0231738 96.4268651,18.8991714 C96.4011223,11.8233102 102.328314,6.00512476 109.617195,6.00512476 Z M107.195544,18.1097097 L110.348333,15.3484485 L113.173743,18.4299481 L110.020305,21.1909471 L107.195544,18.1097097 Z M109.44088,23.4348568 L112.568032,20.6491515 L115.418297,23.7304019 L112.265376,26.4917942 L109.44088,23.4348568 Z M104.952156,12.8589306 L108.104031,10.0976694 L110.928792,13.1791689 L107.77587,15.940299 L104.952156,12.8589306 Z M110.72672,11.3792913 L113.072509,9.30857476 L115.191623,11.6013728 L112.845834,13.6965466 L110.72672,11.3792913 Z M114.913953,20.8705777 L117.25896,18.7997301 L119.377955,21.1164612 L117.032034,23.1885932 L114.913953,20.8705777 Z M116.981807,25.5304107 L119.327729,23.459183 L121.44504,25.75185 L119.100033,27.8467617 L116.981807,25.5304107 Z M117.940402,14.8799854 L119.503912,13.4992893 L120.915841,15.0283282 L119.352583,16.4085131 L117.940402,14.8799854 Z M115.922641,10.3192267 L117.486284,8.91433544 L118.899248,10.4671893 L117.334439,11.8477544 L115.922641,10.3192267 Z M119.932658,19.4411243 L121.496168,18.0605592 L122.933721,19.5890869 L121.345356,20.9692718 L119.932658,19.4411243 Z M112.896061,16.0142869 L115.241982,13.9434393 L117.360062,16.2357262 L115.015175,18.3069539 L112.896061,16.0142869 Z" id="Combined-Shape" fill="#036CB5" fill-rule="nonzero"></path>
            <g id="Group" transform="translate(9.000000, 11.456311)">
                <g id="Fill-25-Clipped" transform="translate(0.000000, 0.866196)">
                    <mask id="mask-2" fill="white">
                        <use xlink:href="#path-1"></use>
                    </mask>
                    <g id="path-1_2_"></g>
                    <polygon id="Fill-25" fill="#036CB5" fill-rule="nonzero" mask="url(#mask-2)" points="6.98447512 3.57373835 6.86551744 3.57373835 4.63208512 11.9613146 2.80657395 11.9613146 0.0662790698 0.0452708738 1.9603493 0.0452708738 3.85487023 8.93663301 3.97317837 8.93663301 6.17165512 0.0452708738 7.67750233 0.0452708738 10.0286595 8.93663301 10.1470472 8.93663301 11.8725565 0.0452708738 13.851676 0.0452708738 11.1106786 11.9613146 9.28378884 11.9613146"></polygon>
                </g>
                <path d="M16.254743,7.75463592 L20.1273495,7.75463592 C20.0433342,5.99046117 19.1802216,5.28521068 18.2672009,5.28521068 C17.2354744,5.28521068 16.439993,6.07494757 16.254743,7.75463592 M21.4803042,10.9152481 L21.4803042,12.1927806 C20.7193277,12.6296301 19.705006,12.9660029 18.4864786,12.9660029 C15.6456649,12.9660029 14.4786628,11.2180937 14.4786628,8.56293204 C14.4786628,6.00723786 15.7807549,4.15845874 18.3179309,4.15845874 C20.4316102,4.15845874 21.7348026,5.5207267 21.7348026,8.25957524 L21.7348026,8.88150583 L16.2208214,8.88150583 C16.2208214,10.8976981 17.0491109,11.788685 18.7919191,11.788685 C19.7050193,11.7886981 20.5507137,11.4688267 21.4803042,10.9152481" id="Fill-28" fill="#036CB5" fill-rule="nonzero"></path>
                <path d="M25.6689028,11.6183359 C26.2102702,11.8535898 26.8026991,11.8884015 27.2262621,11.8884015 C28.4775977,11.8884015 29.4237579,11.1141568 29.4237579,8.39218981 C29.4237579,6.25772184 28.645814,5.56859272 27.5130516,5.56859272 C26.8359579,5.56859272 26.3456651,5.75405388 25.6688895,6.12307573 L25.6688895,11.6183359 L25.6689028,11.6183359 Z M25.6867053,4.87972573 C26.1928653,4.61170485 27.0553284,4.25753301 27.9690649,4.25753301 C30.0666251,4.25753301 31.200037,5.70285874 31.200037,8.39218981 C31.200037,11.535265 29.6775007,13.064684 27.2262753,13.064684 C26.3291086,13.064684 24.9422323,12.7788641 23.9268237,12.2398733 L23.9268237,0.50993301 L25.6867186,0.0903582524 L25.6867186,4.87972573 L25.6867053,4.87972573 Z" id="Fill-30" fill="#036CB5" fill-rule="nonzero"></path>
                <polygon id="Fill-32" fill="#036CB5" fill-rule="nonzero" points="38.8127449 10.2990714 38.8974628 10.2990714 42.5163398 0.904041262 44.6148147 0.904041262 44.6148147 12.8209762 42.7881237 12.8209762 42.7881237 4.18163155 42.6356288 4.18163155 39.18465 12.8209762 38.1031479 12.8209762 34.6514002 4.38360728 34.4997405 4.38360728 34.4997405 12.8209762 32.9773367 12.8209762 32.9773367 0.904041262 35.0245381 0.904041262"></polygon>
                <path d="M52.077997,8.56242087 C52.077997,6.29368689 51.1484065,5.3361568 49.9982923,5.3361568 C48.8823516,5.3361568 47.9174212,6.2937 47.9174212,8.56242087 C47.9174212,10.8651932 48.7980181,11.788685 49.9982923,11.788685 C51.1985665,11.788685 52.077997,10.8652063 52.077997,8.56242087 M46.1421363,8.56242087 C46.1421363,5.62018107 47.7662916,4.15845874 49.9982923,4.15845874 C52.2316451,4.15845874 53.8549123,5.62016796 53.8549123,8.56242087 C53.8549123,11.4358107 52.3158593,12.9660029 49.9982923,12.9660029 C47.6811893,12.9660029 46.1421363,11.4358107 46.1421363,8.56242087" id="Fill-34" fill="#036CB5" fill-rule="nonzero"></path>
                <path d="M55.1927288,5.4030932 C55.9537716,4.94857573 57.5613042,4.15845874 59.5059188,4.15845874 C61.5354502,4.15845874 62.2952072,4.94857573 62.2952072,6.67921019 L62.2952072,12.7641451 L60.5373935,12.7641451 L60.5373935,7.06626699 C60.5373935,5.73882379 59.8788712,5.5035568 59.0151753,5.5035568 C58.3394337,5.5035568 57.4757379,5.80652039 56.9518549,6.10897282 L56.9518549,12.764132 L55.1927288,12.7641451 L55.1927421,5.4030932 L55.1927288,5.4030932 Z" id="Fill-36" fill="#036CB5" fill-rule="nonzero"></path>
                <path d="M66.018487,7.75463592 L69.8914116,7.75463592 C69.8081784,5.99046117 68.9446019,5.28521068 68.0311967,5.28521068 C66.9992051,5.28521068 66.2052879,6.07494757 66.018487,7.75463592 M71.2441807,10.9152481 L71.2441807,12.1927806 C70.4835223,12.6296301 69.4686307,12.9660029 68.2506202,12.9660029 C65.4107212,12.9660029 64.242937,11.2180937 64.242937,8.56293204 C64.242937,6.00723786 65.5445651,4.15845874 68.08194,4.15845874 C70.1969184,4.15845874 71.4998456,5.5207267 71.4998456,8.25957524 L71.4998456,8.88150583 L65.9852149,8.88150583 C65.9852149,10.8976981 66.8140877,11.788685 68.5562463,11.788685 C69.4686174,11.7886981 70.3156242,11.4688267 71.2441807,10.9152481" id="Fill-38" fill="#036CB5" fill-rule="nonzero"></path>
                <path d="M78.5251619,4.15845874 L80.3354156,4.15845874 L77.27376,12.5607539 C76.4268858,14.8803029 75.3963258,16.0905058 73.4515786,16.0905058 L73.4515786,14.7132699 C74.6023953,14.7132699 75.3116609,13.8052704 75.7185349,12.5607539 L72.4708605,4.15845874 L74.3317249,4.15845874 L76.4965451,10.3432282 L76.5980316,10.3432282 L78.5251619,4.15845874 Z" id="Fill-40" fill="#036CB5" fill-rule="nonzero"></path>
            </g>
        </g>
    </g>
</svg>